<svg width="84" height="86" viewBox="0 0 84 86" fill="none" xmlns="http://www.w3.org/2000/svg">
  <path
    d="M64.5938 52.1339C67.6824 54.8946 70.8753 57.3682 74.3946 59.4051C75.7708 60.2016 75.7554 60.2218 74.9409 61.6258C74.2233 62.863 73.4657 64.0803 72.8151 65.3521C72.3587 66.2443 71.8613 66.2841 71.0922 65.766C69.8385 64.9214 68.5062 64.1897 67.2795 63.3095C61.2446 58.9794 54.4312 56.7739 47.1298 55.9954C37.9745 55.0192 29.218 56.4657 20.9748 60.6681C18.4183 61.9715 16.1916 63.8012 13.741 65.2753C13.1532 65.6288 12.549 65.955 11.8226 66.3674C10.7116 64.4376 9.63671 62.618 8.61406 60.7695C8.23057 60.0763 8.89014 59.8431 9.31913 59.5785C12.2456 57.7735 15.0781 55.8398 17.6808 53.5834C28.1134 44.5392 34.7305 33.2699 37.3979 19.7107C38.0685 16.3019 38.4969 12.8572 38.3847 9.37436C38.3494 8.27815 38.7588 7.9366 39.8116 7.98569C41.2801 8.05417 42.7565 8.05286 44.225 7.98518C45.2714 7.93695 45.6732 8.27176 45.6649 9.3686C45.6045 17.4101 47.3538 25.0769 50.5604 32.43C53.8424 39.956 58.5495 46.4682 64.5938 52.1339ZM37.2106 40.783C35.5889 43.7272 33.7138 46.5151 31.8187 49.3565C38.665 48.238 45.4139 48.3177 52.2338 49.342C47.9856 43.45 44.5936 37.2122 42.0055 30.2154C40.6254 33.9983 39.0545 37.3549 37.2106 40.783Z"
    fill="#0071E3" />
  <path
    d="M61.8553 77.6986C55.5528 74.6849 48.9602 73.2617 42.1008 73.2593C34.4281 73.2566 27.1172 74.9462 20.3379 78.6369C19.5095 79.0879 19.058 79.0558 18.6049 78.1833C17.9091 76.8435 17.1638 75.5218 16.3346 74.2614C15.7402 73.3577 15.8669 72.8733 16.8245 72.3633C21.0699 70.1022 25.5404 68.4637 30.2267 67.4182C34.709 66.4182 39.2543 65.9866 43.8437 66.1699C52.1243 66.5007 59.9647 68.494 67.2813 72.4524C68.1164 72.9042 68.3052 73.2909 67.7453 74.139C66.8692 75.4662 66.0913 76.8628 65.3427 78.2678C64.9346 79.0336 64.5004 79.1291 63.7909 78.6875C63.2039 78.3221 62.557 78.0529 61.8553 77.6986Z"
    fill="#0071E3" />
</svg>
