<svg width="327" height="127" fill="none" xmlns="http://www.w3.org/2000/svg"><path d="m246.138 32.98 1.043-2.907a13.696 13.696 0 0 0-7.265-2.076c-5.973 0-9.679 3.487-9.679 8.178 0 4.526 2.766 7.185 7.431 7.682l2.005.207c3.509.373 4.803 2.617 4.803 5.273 0 3.157-2.005 5.357-5.973 5.357-2.588 0-5.218-.913-7.055-2.533l-1.252 2.907c2.046 1.702 5.254 2.824 8.476 2.824 5.721 0 9.186-3.737 9.186-8.764 0-4.523-2.715-7.762-7.768-8.304l-2.005-.206c-2.671-.291-4.424-1.702-4.424-4.65 0-2.865 2.212-4.858 6.222-4.858 2.23-.022 4.414.63 6.264 1.87h-.009Zm-33.243 2.994c0-2.865 2.213-4.859 6.222-4.859 2.231-.021 4.415.63 6.264 1.87l1.043-2.906a13.696 13.696 0 0 0-7.265-2.076c-5.971 0-9.679 3.486-9.679 8.177 0 4.526 2.765 7.185 7.433 7.683l2.005.206c3.507.374 4.801 2.618 4.801 5.274-.008 3.16-2.019 5.36-5.979 5.36-2.591 0-5.221-.914-7.057-2.533l-1.253 2.906c2.047 1.702 5.254 2.824 8.476 2.824 5.722 0 9.187-3.737 9.187-8.763 0-4.523-2.713-7.763-7.768-8.304l-2.002-.207c-2.674-.291-4.425-1.702-4.425-4.65l-.003-.002ZM203.681 99h5.428V69.938h-6.263V81.98l.628 3.652a.357.357 0 0 1-.67.25l-9.145-15.948h-5.42V99h6.264V86.962l-.592-3.663a.35.35 0 0 1 .019-.262.358.358 0 0 1 .647.012l9.104 15.948V99Zm-15.21-41.52h16.828v-3.237h-13.556v-9.676h12.862V41.33h-12.862v-9.676h13.569v-3.236h-16.827v29.064l-.014-.003ZM178.322 99h6.637l-7.082-29.062h-13.573v5.387h3.042L161.591 99h6.637l1.419-6.726h7.265L178.333 99h-.011Zm-2.575-12.126h-4.93l1.794-8.524.294-2.615a.376.376 0 0 1 .752 0l.29 2.615 1.798 8.524h.002Zm3.089-29.392h3.319V28.418h-3.319v19.72l.459 2.783c.042.374-.331.622-.553.206l-12.234-22.71h-2.843v29.065h3.341V38.84l-.418-2.7c-.083-.457.335-.622.584-.124l11.664 21.467Zm-34.465 41.52h14.784v-5.804h-8.103v-23.26h-6.695V99l.014.003Zm1.023-41.52h13.487v-3.157h-5.025V31.572h5.011v-3.154h-13.492v3.154h5.011v22.753h-5.011v3.157h.019Zm-17.762-21.508c0-2.865 2.212-4.859 6.222-4.859 2.23-.021 4.414.63 6.264 1.87l1.042-2.906a13.69 13.69 0 0 0-7.264-2.076c-5.974 0-9.679 3.486-9.679 8.177 0 4.526 2.765 7.185 7.43 7.683l2.005.206c3.51.374 4.804 2.618 4.804 5.274 0 3.157-2.005 5.356-5.973 5.356-2.589 0-5.219-.913-7.058-2.532l-1.253 2.906c2.047 1.702 5.255 2.824 8.479 2.824 5.719 0 9.187-3.736 9.187-8.763 0-4.523-2.716-7.762-7.768-8.304l-2.005-.206c-2.671-.292-4.425-1.702-4.425-4.65h-.008Zm5.299 49.907-9.146-15.948h-5.428V99h6.277V86.962l-.6-3.663a.356.356 0 0 1 .482-.449c.087.04.154.11.187.199l9.104 15.948h5.429V69.938h-6.264V81.98l.625 3.652a.354.354 0 0 1-.478.434.353.353 0 0 1-.188-.184Zm-13.404-36.747.041-20.716h-3.506v20.716c0 3.322-2.296 5.607-5.678 5.607s-5.68-2.285-5.68-5.607l.041-20.716h-3.509v20.716c0 5.191 3.717 8.763 9.145 8.763 5.429 0 9.146-3.574 9.146-8.763Zm-5.36 20.804H99.845v5.387h3.841V93.59h-3.84V99h14.321v-5.398h-3.841V75.325h3.841v-5.387Zm-28.636 5.813h11.275v-5.813H78.85V99h6.681V87.377h10.564v-5.813H85.531v-5.813Zm6.433-32.996c2.42-1.122 3.965-3.363 3.965-6.435 0-5.026-2.964-7.889-8.02-7.889H78.85v29.065h9.062c5.429 0 8.6-2.865 8.6-7.889 0-3.28-1.752-5.857-4.548-6.852Zm-4.01-1.287h-5.846V31.33h5.846c3.006 0 4.718 1.908 4.718 4.982 0 3.237-1.712 5.148-4.718 5.148v.008Zm5.304 8.139c0 3.113-1.922 4.982-5.304 4.982h-5.846V44.361h5.846c3.382 0 5.304 1.952 5.304 5.224v.022ZM222.75 69.955h-8.517V99h8.517c7.265 0 11.15-3.693 11.615-9.547.124-1.496.207-3.366.207-4.983 0-1.616-.083-3.489-.207-4.982-.501-5.857-4.345-9.55-11.615-9.55v.017Zm-1.836 5.37h1.836c3.595 0 5.219 2.2 5.47 5.024.134 1.37.189 2.747.166 4.124a35.663 35.663 0 0 1-.166 4.108c-.293 2.824-1.878 5.024-5.47 5.024h-1.836v-18.28Z" fill="#243D95"/></svg>