<svg width="327" height="127" fill="none" xmlns="http://www.w3.org/2000/svg"><path d="M47.23 67.946H35.762v7.983H46.3v5.942H35.763v12.635h-7.319V61.98H47.23v5.966ZM60.51 95.074c-3.867 0-6.907-1.085-9.12-3.255-2.214-2.17-3.321-5.115-3.321-8.835 0-3.843 1.148-6.848 3.444-9.016 2.296-2.169 5.4-3.254 9.315-3.256 3.853 0 6.874 1.085 9.063 3.255 2.189 2.17 3.284 5.04 3.286 8.61 0 3.856-1.13 6.902-3.389 9.139-2.259 2.237-5.352 3.356-9.278 3.358Zm.181-18.871c-1.691 0-3.005.581-3.94 1.745-.935 1.164-1.404 2.812-1.405 4.944 0 4.463 1.797 6.693 5.393 6.692 3.429 0 5.143-2.292 5.143-6.874.004-4.338-1.724-6.507-5.183-6.507h-.008Zm36.675 18.303h-7.13v-3.529h-.113c-1.768 2.738-4.133 4.107-7.092 4.107-5.382-.007-8.073-3.269-8.073-9.786V71.28h7.137v13.386c0 3.282 1.299 4.923 3.896 4.923a3.859 3.859 0 0 0 3.084-1.35c.769-.898 1.154-2.12 1.156-3.662V71.28h7.137l-.002 23.226Zm24.724 0h-7.129V81.6c0-3.6-1.284-5.4-3.851-5.398a3.822 3.822 0 0 0-3.053 1.427c-.802.952-1.202 2.162-1.2 3.629v13.247h-7.17V71.28h7.162v3.681h.089c1.708-2.825 4.193-4.239 7.455-4.24 5.139 0 7.707 3.19 7.705 9.57l-.008 14.215Zm25.87 0h-7.153v-3.198h-.089c-1.634 2.509-4.027 3.764-7.18 3.766-2.9 0-5.233-1.025-7-3.074-1.767-2.05-2.651-4.91-2.651-8.585 0-3.843.974-6.92 2.921-9.232 1.948-2.312 4.501-3.469 7.66-3.47 2.993 0 5.078 1.073 6.255 3.22h.089V60.121h7.161l-.013 34.385Zm-7.024-11.307v-1.746a5.51 5.51 0 0 0-1.314-3.765 4.64 4.64 0 0 0-7.134.384c-.894 1.25-1.339 2.962-1.338 5.138 0 2.044.43 3.616 1.29 4.717.86 1.1 2.054 1.653 3.581 1.656a4.302 4.302 0 0 0 3.546-1.745c.918-1.166 1.377-2.709 1.377-4.628l-.008-.01Zm31.039 1.73H156.84c.242 3.371 2.364 5.057 6.368 5.057 2.553 0 4.796-.605 6.73-1.815v5.173c-2.146 1.15-4.933 1.724-8.362 1.724-3.746 0-6.654-1.039-8.724-3.118-2.07-2.079-3.105-4.978-3.105-8.695 0-3.857 1.119-6.91 3.355-9.161 2.236-2.251 4.986-3.378 8.248-3.382 3.384 0 6.001 1.007 7.852 3.019 1.851 2.012 2.776 4.742 2.774 8.188v3.01Zm-6.638-4.401c0-3.33-1.345-4.996-4.035-4.996a3.848 3.848 0 0 0-2.979 1.428 6.496 6.496 0 0 0-1.529 3.56l8.543.008Zm23.839-2.79a6.21 6.21 0 0 0-3.013-.697c-1.558 0-2.775.57-3.649 1.712-.873 1.141-1.311 2.695-1.313 4.662v11.09h-7.161V71.28h7.161v4.31h.089c1.133-3.145 3.173-4.717 6.118-4.717a4.608 4.608 0 0 1 1.768.263v6.602Zm1.629 16.155v-5.808a15.31 15.31 0 0 0 3.523 1.577c1.075.335 2.194.512 3.32.526 1.268 0 2.269-.175 3.003-.526.733-.35 1.099-.876 1.098-1.577a1.474 1.474 0 0 0-.497-1.133 4.61 4.61 0 0 0-1.282-.79 14.01 14.01 0 0 0-1.71-.612c-.62-.175-1.217-.38-1.791-.613-.84-.31-1.654-.686-2.436-1.122a7.031 7.031 0 0 1-1.767-1.397 5.494 5.494 0 0 1-1.088-1.84 7.345 7.345 0 0 1-.373-2.474 6.381 6.381 0 0 1 .848-3.356 6.93 6.93 0 0 1 2.268-2.303 10.327 10.327 0 0 1 3.239-1.315 16.79 16.79 0 0 1 3.795-.42c1.048 0 2.094.08 3.129.239a23.19 23.19 0 0 1 3.126.692v5.521a11.16 11.16 0 0 0-2.903-1.172 12.232 12.232 0 0 0-3.047-.397c-.441-.002-.88.04-1.313.123-.381.072-.75.194-1.098.363-.296.14-.552.351-.749.613a1.419 1.419 0 0 0-.263.852c-.007.401.14.79.41 1.088.297.327.654.595 1.051.789.471.234.959.432 1.46.591l1.6.526a21.07 21.07 0 0 1 2.582 1.089 8.27 8.27 0 0 1 1.984 1.386c.548.524.98 1.157 1.269 1.859a7.46 7.46 0 0 1-.455 6.066 7.179 7.179 0 0 1-2.364 2.382 10.773 10.773 0 0 1-3.415 1.338 19.03 19.03 0 0 1-4.022.421 20.72 20.72 0 0 1-7.132-1.186Zm56.276.613h-7.355V81.248h-13.439v13.247h-7.319V61.98h7.319v12.974h13.46V61.98h7.355l-.021 32.526Zm24.725 0h-7.137v-3.529h-.113c-1.769 2.738-4.133 4.107-7.093 4.107-5.38 0-8.069-3.258-8.067-9.776V71.28h7.137v13.386c0 3.282 1.299 4.923 3.896 4.923a3.857 3.857 0 0 0 3.084-1.35c.77-.898 1.156-2.12 1.156-3.662V71.28h7.137v23.226Zm9.564-2.698h-.089v2.698h-7.161V60.12h7.161v14.651h.089c1.769-2.706 4.285-4.06 7.548-4.06 2.989 0 5.293 1.028 6.911 3.085 1.618 2.056 2.426 4.868 2.425 8.437 0 3.874-.944 6.982-2.832 9.324-1.888 2.342-4.412 3.514-7.571 3.516-2.847 0-5.005-1.089-6.473-3.266h-.008Zm-.202-9.8v2.396c0 1.497.43 2.736 1.29 3.718a4.201 4.201 0 0 0 3.31 1.475c1.632 0 2.897-.631 3.796-1.893.898-1.263 1.347-3.05 1.347-5.364 0-1.929-.411-3.43-1.234-4.502-.823-1.073-1.995-1.618-3.515-1.635a4.545 4.545 0 0 0-3.567 1.609c-.95 1.074-1.424 2.473-1.424 4.196h-.003Z" fill="#8661C5"/><path d="M42.942 46.038H40.72v-8.745c0-.716.045-1.594.131-2.63h-.042a9.059 9.059 0 0 1-.367 1.273l-4.03 10.102H34.87l-4.043-10.015a9.576 9.576 0 0 1-.357-1.35h-.037c.05.542.073 1.423.073 2.648v8.727h-2.07V32.525h3.153l3.549 8.998c.207.504.382 1.02.525 1.546h.047c.232-.71.42-1.235.565-1.577l3.615-8.961h3.042l.01 13.507Zm3.505-11.675a1.312 1.312 0 0 1-.917-.35 1.147 1.147 0 0 1-.384-.885 1.174 1.174 0 0 1 .384-.894 1.283 1.283 0 0 1 .917-.358c.348-.009.685.12.94.358a1.201 1.201 0 0 1 0 1.767 1.314 1.314 0 0 1-.94.362Zm1.082 11.675h-2.183v-9.65h2.183v9.65Zm9.27-.444a5.37 5.37 0 0 1-2.74.683c-1.429 0-2.583-.448-3.462-1.343-.879-.896-1.317-2.057-1.313-3.482 0-1.59.472-2.867 1.416-3.83.944-.965 2.207-1.447 3.79-1.447.8-.015 1.593.143 2.325.463v2.014a3.527 3.527 0 0 0-2.146-.755 2.978 2.978 0 0 0-2.27.939 3.42 3.42 0 0 0-.885 2.453c0 1 .277 1.788.833 2.367a2.965 2.965 0 0 0 2.235.865 3.487 3.487 0 0 0 2.223-.839l-.006 1.912Zm7.274-7.123a1.803 1.803 0 0 0-1.137-.31 1.953 1.953 0 0 0-1.621.875c-.43.584-.649 1.378-.649 2.385v4.617h-2.183v-9.65h2.183v2.001h.04a3.371 3.371 0 0 1 .982-1.578 2.224 2.224 0 0 1 1.482-.568c.311-.019.622.043.903.18v2.048Zm5.167 7.806c-1.486 0-2.674-.451-3.562-1.354-.888-.903-1.332-2.097-1.332-3.584 0-1.621.463-2.887 1.387-3.797.925-.91 2.173-1.365 3.744-1.367 1.506 0 2.68.443 3.52 1.328.84.885 1.26 2.112 1.26 3.681 0 1.54-.453 2.772-1.36 3.697-.907.926-2.126 1.391-3.657 1.396Zm.103-8.359a2.491 2.491 0 0 0-2.023.894c-.495.598-.743 1.421-.743 2.47 0 1.012.25 1.808.754 2.39a2.525 2.525 0 0 0 2.012.87 2.396 2.396 0 0 0 1.983-.857c.46-.57.691-1.386.691-2.44 0-1.055-.231-1.883-.69-2.459a2.39 2.39 0 0 0-1.984-.88v.012Zm6.042 7.83v-2.024a4.36 4.36 0 0 0 2.7.93c1.319 0 1.978-.388 1.978-1.167a.916.916 0 0 0-.17-.56 1.576 1.576 0 0 0-.455-.41 3.543 3.543 0 0 0-.678-.32c-.262-.095-.551-.2-.872-.321a9.469 9.469 0 0 1-1.069-.5 3.318 3.318 0 0 1-.788-.597 2.276 2.276 0 0 1-.476-.76 2.828 2.828 0 0 1-.157-.988c-.01-.434.104-.86.328-1.23.226-.36.528-.666.886-.895.388-.25.813-.434 1.26-.547a5.715 5.715 0 0 1 1.458-.184 6.62 6.62 0 0 1 2.394.405v1.914a4.03 4.03 0 0 0-2.336-.7 2.983 2.983 0 0 0-.751.07 1.915 1.915 0 0 0-.57.233 1.145 1.145 0 0 0-.365.363.86.86 0 0 0-.134.468.984.984 0 0 0 .134.526c.098.156.23.286.389.381.196.122.405.223.622.303.242.092.525.189.833.297.38.155.753.331 1.116.526.307.16.59.361.84.6.235.216.422.48.55.772.132.334.196.692.186 1.052.01.45-.107.894-.338 1.28a2.828 2.828 0 0 1-.904.905 4.2 4.2 0 0 1-1.314.526 6.801 6.801 0 0 1-1.557.176 6.562 6.562 0 0 1-2.73-.536l-.01.013Zm12.709.53c-1.487 0-2.674-.452-3.562-1.355-.888-.903-1.332-2.097-1.332-3.584 0-1.621.462-2.887 1.387-3.797.924-.91 2.172-1.365 3.743-1.367 1.506 0 2.68.443 3.52 1.328.84.885 1.261 2.112 1.261 3.681 0 1.54-.453 2.772-1.36 3.697-.908.926-2.127 1.391-3.657 1.396Zm.102-8.36a2.491 2.491 0 0 0-2.022.894c-.498.598-.746 1.421-.744 2.47 0 1.012.25 1.808.754 2.39a2.524 2.524 0 0 0 2.012.87 2.395 2.395 0 0 0 1.984-.857c.46-.57.69-1.386.69-2.44 0-1.055-.23-1.883-.69-2.459a2.39 2.39 0 0 0-1.976-.88l-.008.012Zm11.785-4.372a1.994 1.994 0 0 0-1.007-.263c-1.06 0-1.592.6-1.592 1.8V36.4h2.241v1.714h-2.23v7.935h-2.186v-7.946H93.56v-1.714h1.647v-1.564a3.045 3.045 0 0 1 .999-2.406 4.172 4.172 0 0 1 3.775-.702v1.83Zm6.433 12.4a3.785 3.785 0 0 1-1.684.32c-1.87 0-2.806-.898-2.806-2.694v-5.47h-1.61v-1.714h1.61v-2.232l2.183-.623v2.855h2.307v1.714h-2.296v4.825c0 .571.105.981.31 1.226a1.29 1.29 0 0 0 1.038.368 1.5 1.5 0 0 0 .958-.321l-.01 1.746Zm11.669-12.4a1.998 1.998 0 0 0-1.007-.263c-1.061 0-1.591.6-1.591 1.8V36.4h2.24v1.714h-2.23v7.935h-2.183v-7.946h-1.647v-1.714h1.647v-1.564a3.039 3.039 0 0 1 .998-2.406 4.17 4.17 0 0 1 3.775-.702l-.002 1.83Zm4.991 12.731c-1.487 0-2.674-.451-3.562-1.354-.888-.903-1.332-2.097-1.332-3.584 0-1.621.462-2.887 1.387-3.797.924-.91 2.172-1.365 3.743-1.367 1.506 0 2.68.443 3.52 1.328.841.885 1.261 2.112 1.261 3.681 0 1.54-.453 2.772-1.361 3.697-.907.926-2.124 1.391-3.651 1.396h-.005Zm.102-8.359a2.493 2.493 0 0 0-2.023.894c-.499.595-.748 1.418-.748 2.47 0 1.012.249 1.808.754 2.39a2.517 2.517 0 0 0 2.012.87 2.393 2.393 0 0 0 1.983-.857c.46-.57.691-1.386.691-2.44 0-1.055-.231-1.883-.691-2.459a2.382 2.382 0 0 0-1.973-.88l-.005.012Zm12.15.566a1.806 1.806 0 0 0-1.138-.31 1.956 1.956 0 0 0-1.621.875c-.432.584-.648 1.379-.648 2.385v4.617h-2.186v-9.65h2.186v1.988h.044a3.379 3.379 0 0 1 .985-1.578 2.22 2.22 0 0 1 1.482-.568 1.82 1.82 0 0 1 .904.18l-.008 2.06Zm5.508 7.004V43.18c.224.2.472.372.738.51.292.153.596.28.909.381.315.102.636.182.962.24.292.055.588.084.885.086.941 0 1.641-.157 2.102-.47a1.554 1.554 0 0 0 .693-1.368 1.48 1.48 0 0 0-.231-.833 2.423 2.423 0 0 0-.644-.647 6.93 6.93 0 0 0-.974-.56 72.365 72.365 0 0 0-1.201-.56 20.504 20.504 0 0 1-1.282-.744 5.678 5.678 0 0 1-1.029-.826 3.533 3.533 0 0 1-.689-1.033 3.373 3.373 0 0 1-.249-1.347 3.118 3.118 0 0 1 .428-1.654 3.617 3.617 0 0 1 1.132-1.159 5.157 5.157 0 0 1 1.595-.678 7.587 7.587 0 0 1 1.839-.221c1.413 0 2.442.16 3.086.48v2.215c-.765-.552-1.75-.83-2.955-.831-.333 0-.666.032-.993.095a3.063 3.063 0 0 0-.885.31c-.25.136-.466.327-.633.557-.17.24-.256.528-.247.82a1.55 1.55 0 0 0 .189.79c.14.236.328.441.551.602.278.202.575.378.886.526.346.173.751.36 1.208.56.469.245.913.503 1.332.773.399.255.769.555 1.101.894.31.318.564.686.754 1.088.19.428.285.893.278 1.362a3.195 3.195 0 0 1-1.532 2.893 4.945 4.945 0 0 1-1.612.639 8.974 8.974 0 0 1-1.931.2c-.226 0-.502-.019-.833-.053a11.907 11.907 0 0 1-1.011-.15 9.665 9.665 0 0 1-.98-.242 3.077 3.077 0 0 1-.757-.337Zm14.919.434a3.786 3.786 0 0 1-1.684.321c-1.871 0-2.806-.898-2.806-2.695v-5.446h-1.61v-1.714h1.61v-2.232l2.183-.623v2.855h2.307v1.714h-2.307v4.825c0 .571.105.981.31 1.226a1.305 1.305 0 0 0 1.038.368c.347.007.686-.106.959-.321v1.722Zm8.973.106h-2.12v-1.51h-.037a3.183 3.183 0 0 1-2.929 1.736c-.945 0-1.689-.263-2.225-.773a2.706 2.706 0 0 1-.806-2.046c0-1.821 1.051-2.883 3.152-3.184l2.864-.405c0-1.376-.654-2.064-1.96-2.064a4.642 4.642 0 0 0-3.105 1.186v-1.894a6.777 6.777 0 0 1 3.52-.904c2.436 0 3.654 1.2 3.654 3.6l-.008 6.258Zm-2.101-4.733-2.028.286c-.501.04-.986.195-1.416.455-.319.223-.478.614-.476 1.175a1.284 1.284 0 0 0 .439 1.002 1.69 1.69 0 0 0 1.171.392 2.161 2.161 0 0 0 1.648-.694c.44-.48.675-1.115.654-1.767l.008-.85Zm9.333-2.827a1.804 1.804 0 0 0-1.138-.31 1.946 1.946 0 0 0-1.62.875c-.431.584-.649 1.378-.649 2.385v4.617h-2.183v-9.65h2.183v2.004h.037a3.391 3.391 0 0 1 .985-1.578 2.217 2.217 0 0 1 1.481-.568c.312-.019.623.043.904.18v2.045Zm6.791 7.462a3.785 3.785 0 0 1-1.684.32c-1.871 0-2.806-.897-2.806-2.694v-5.454h-1.61v-1.714h1.608v-2.232l2.185-.623v2.855h2.304v1.714h-2.309v4.825c0 .571.102.981.31 1.226a1.289 1.289 0 0 0 1.035.368c.347.007.686-.106.959-.321l.008 1.73Zm9.982.105h-2.183v-1.527h-.04a3.147 3.147 0 0 1-2.965 1.77c-2.277 0-3.415-1.37-3.415-4.11v-5.78h2.185v5.54c0 1.736.668 2.602 2.005 2.6a2.024 2.024 0 0 0 1.594-.715 2.744 2.744 0 0 0 .628-1.874v-5.55h2.183l.008 9.646Zm3.94-1.422h-.039v5.871h-2.194V36.388h2.183v1.696h.04c.746-1.281 1.838-1.922 3.275-1.922 1.226 0 2.18.43 2.861 1.291.681.86 1.024 2.017 1.027 3.468 0 1.608-.386 2.895-1.158 3.863a3.828 3.828 0 0 1-3.153 1.451 3.149 3.149 0 0 1-2.852-1.62l.01-.002Zm-.058-3.807v1.196a2.574 2.574 0 0 0 .673 1.79 2.364 2.364 0 0 0 3.614-.212c.463-.632.694-1.512.694-2.643 0-.95-.215-1.69-.646-2.23a2.121 2.121 0 0 0-1.744-.804 2.361 2.361 0 0 0-1.879.828 3.07 3.07 0 0 0-.722 2.077l.01-.002Zm8.28 4.927v-2.025a4.369 4.369 0 0 0 2.703.931c1.314 0 1.976-.389 1.976-1.167a.912.912 0 0 0-.168-.56 1.585 1.585 0 0 0-.457-.41 3.533 3.533 0 0 0-.678-.321c-.263-.095-.552-.2-.87-.321a9.384 9.384 0 0 1-1.069-.5 3.276 3.276 0 0 1-.788-.597 2.27 2.27 0 0 1-.475-.76 2.75 2.75 0 0 1-.16-.988c-.009-.433.105-.86.328-1.23.225-.36.528-.666.885-.895a4.27 4.27 0 0 1 1.261-.547 5.746 5.746 0 0 1 1.461-.184 6.604 6.604 0 0 1 2.39.405v1.914a4.022 4.022 0 0 0-2.335-.699 2.945 2.945 0 0 0-.746.087 1.882 1.882 0 0 0-.57.234 1.13 1.13 0 0 0-.368.363.878.878 0 0 0-.131.468c-.005.184.04.366.131.526.098.156.232.287.391.38.196.123.404.224.62.303.242.092.526.19.833.297.381.156.754.331 1.117.526.307.16.59.362.843.6.225.22.403.482.525.773.135.334.199.692.189 1.052.011.45-.107.894-.339 1.28a2.86 2.86 0 0 1-.903.905 4.21 4.21 0 0 1-1.314.525 6.77 6.77 0 0 1-1.557.177 6.56 6.56 0 0 1-2.735-.54l.01-.002Z" fill="#3B2E58"/></svg>