<svg width="327" height="127" fill="none" xmlns="http://www.w3.org/2000/svg"><path d="M61.936 55.995c5.612-6.243 13.74-5.921 17.862.459.362-.084.526-.399.715-.661 3.097-4.188 9.855-5.05 13.92-3.456 3.458 1.355 4.952 4.057 5.452 7.517.333 2.301.191 4.613.222 6.92.064 4.732.082 9.464.162 14.196.013.758-.182 1.033-.966.998a35.745 35.745 0 0 0-3.436.015c-.75.038-1.09-.194-1.01-.965.035-.364 0-.734 0-1.102 0-5.063-.008-10.125-.025-15.187a30.568 30.568 0 0 0-.222-3.398c-.486-4.216-3.552-5.483-7.104-5.069-3.183.368-5.239 2.541-6.036 6.054a19.642 19.642 0 0 0-.408 4.37c0 4.77-.023 9.539.02 14.308 0 .771-.203 1.016-.968.978a31.56 31.56 0 0 0-3.33 0c-.79.047-.96-.22-.955-.982.029-5.21 0-10.418 0-15.628a36.98 36.98 0 0 0-.324-4.05c-.506-4.523-4.003-5.427-7.122-5.043-3.208.397-5.408 2.823-6.025 6.292-.493 2.768-.373 5.556-.393 8.34-.024 3.379-.024 6.753 0 10.124 0 .69-.129.967-.888.92a29.354 29.354 0 0 0-3.439 0c-.694.04-.956-.173-.83-.848a21901.868 21901.868 0 0 0-.018-27.954c0-.76.165-1.015.957-.96 1.07.07 2.144.07 3.215 0 .75-.046 1.06.123.985.934-.07.86-.01 1.73-.01 2.879ZM249.081 61.127c0 5.183-.444 9.476-2.284 13.49-4.158 9.035-16.51 11.9-24.153 5.573-3.239-2.682-4.867-6.314-5.63-10.323-1.139-5.974-1.257-11.965.517-17.851 1.598-5.3 4.704-9.344 10.396-10.66 5.994-1.386 11.653-.75 16.179 3.927 2.68 2.768 3.794 6.305 4.469 9.992.344 1.932.513 3.89.506 5.852Zm-5.734.776c-.015-3.306-.188-6.592-1.423-9.73-1.11-2.815-2.817-5.09-5.772-6.145-4.555-1.626-10.656-.388-12.854 6.502-1.902 5.95-1.833 11.977-.279 17.998.624 2.425 1.74 4.598 3.705 6.237 3.729 3.108 11.222 3.196 14.508-3.416 1.796-3.623 2.157-7.493 2.115-11.447ZM191.797 78.225c-4.063 4.284-9.257 5.617-14.43 3.73a9.336 9.336 0 0 1-5.119-4.462 9.227 9.227 0 0 1-.715-6.726c.641-2.376 2.235-3.901 4.402-4.92 2.915-1.37 6.05-1.84 9.211-2.203 1.798-.199 3.594-.441 5.397-.59.637-.056.759-.331.797-.882.246-3.648-1.603-5.834-5.266-6.255a11.314 11.314 0 0 0-4.811.419c-2.047.66-3.33 1.994-3.736 4.08-.147.753-.398 1.037-1.223.925a17.548 17.548 0 0 0-3.108-.113c-.888.04-1.068-.275-.928-1.08.497-2.887 1.962-5.17 4.52-6.585 4.91-2.715 10.061-2.68 15.167-.674 2.826 1.102 4.067 3.581 4.457 6.486.409 3.032.173 6.08.207 9.122.046 4.143-.022 8.288.038 12.434.013.914-.307 1.102-1.11 1.056-.849-.06-1.701-.06-2.549 0-.808.061-.992-.29-1.006-1.008 0-.91.06-1.829-.195-2.754Zm-.027-9.138a4.055 4.055 0 0 1 0-.66c.162-.957-.246-1.176-1.154-1.041-1.532.22-3.086.31-4.62.524-2.073.287-4.193.324-6.156 1.213-2.233 1.011-3.092 2.223-2.977 4.361.118 2.188 1.257 3.58 3.494 4.271 6.032 1.865 11.318-2.155 11.413-8.668ZM126.683 78.332c-.162.046-.262.044-.291.086-2.928 4.628-10.321 5-14.266 3.542a9.442 9.442 0 0 1-5.057-4.459 9.331 9.331 0 0 1-.768-6.67c.586-2.205 2.031-3.703 3.996-4.743 2.515-1.323 5.25-1.9 8.054-2.204 2.276-.258 4.549-.553 6.829-.756.815-.07 1.034-.441 1.097-1.164.222-2.565-1.297-4.952-3.774-5.69a10.446 10.446 0 0 0-6.749.165 5.148 5.148 0 0 0-2.267 1.526 5.098 5.098 0 0 0-1.157 2.465c-.153.765-.426 1.02-1.236.921a27.399 27.399 0 0 0-3.33-.127c-.651 0-.79-.196-.693-.844.666-4.42 3.479-6.914 7.548-8.135 3.506-1.049 7.093-.972 10.612.011 3.707 1.036 5.965 3.793 6.08 7.998.194 7.037.096 14.083.14 21.124 0 .531-.222.593-.666.584a56.302 56.302 0 0 0-3.108 0c-.546.02-.814-.137-.839-.7-.015-.957-.089-1.907-.155-2.93Zm-.138-9.108a4.054 4.054 0 0 1 0-.662c.173-1.042-.268-1.276-1.263-1.141-2.484.335-4.982.564-7.47.862-1.512.183-2.96.584-4.258 1.41-1.354.862-2.027 2.058-1.941 3.683.111 2.144 1.261 3.63 3.433 4.341 5.96 1.957 11.424-2.08 11.499-8.493Z" fill="#030303"/><path d="M270.783 62.11c0 6.492-.025 12.985.024 19.475 0 .946-.253 1.18-1.156 1.102a23.907 23.907 0 0 0-3.33 0c-.758.046-.888-.22-.888-.921.024-6.749.015-13.497.015-20.245 0-4.732-.013-9.463.016-14.195 0-.692-.14-.939-.888-.923-2.551.05-5.106-.027-7.653.041-.917.027-1.127-.277-1.072-1.101.067-1.023.04-2.054 0-3.086-.018-.515.129-.692.666-.69 4.547.02 9.102.03 13.642 0 .859 0 .606.542.606.953.01 6.198.01 12.397 0 18.596l.018.993Z" fill="#010101"/><path d="M139.225 67.097c0-4.628.015-9.246-.016-13.867 0-.75.187-1.034.977-1.03 4.474.027 8.948.027 13.422 0 .666 0 .913.18.877.882a38.753 38.753 0 0 0 0 3.526c.025.6-.191.726-.752.721-2.773-.015-5.55.035-8.321 0-.786-.01-.977.238-.975.994.029 7.522 0 15.041.038 22.56 0 .87-.222 1.138-1.09 1.076a26.167 26.167 0 0 0-3.33 0c-.71.038-.85-.22-.848-.881.031-4.663.018-9.322.018-13.981Z" fill="#030303"/><path d="M159.557 67.024c0-4.628.015-9.245-.018-13.867 0-.732.12-1.044.939-.983 1.034.079 2.073.079 3.108 0 .841-.066 1.07.22 1.07 1.03 0 5.17.046 10.342.053 15.515 0 4.07-.049 8.154-.018 12.213 0 .844-.253 1.07-1.07 1.012a22.45 22.45 0 0 0-3.108 0c-.763.05-.985-.154-.979-.946.047-4.659.023-9.318.023-13.974Z" fill="#010101"/></svg>