<svg width="92" height="19" viewBox="0 0 92 19" fill="none" xmlns="http://www.w3.org/2000/svg">
<path d="M3.82098 11.9504C3.82098 12.9852 4.05231 13.7796 4.35469 14.2603C4.75113 14.8898 5.34244 15.1565 5.94527 15.1565C6.7228 15.1565 7.4341 14.9671 8.80486 13.1058C9.903 11.614 11.197 9.51994 12.0676 8.20716L13.542 5.98308C14.5663 4.43847 15.7518 2.7214 17.111 1.55753C18.2207 0.607583 19.4177 0.079834 20.6224 0.079834C22.6449 0.079834 24.5715 1.23051 26.0459 3.38863C27.6595 5.75219 28.4428 8.72926 28.4428 11.8015C28.4428 13.6279 28.0761 14.9699 27.4522 16.0301C26.8493 17.0554 25.6744 18.0798 23.6979 18.0798V15.1565C25.3903 15.1565 25.8126 13.6298 25.8126 11.8826C25.8126 9.39271 25.2213 6.62957 23.9187 4.65523C22.9943 3.25481 21.7964 2.3991 20.4784 2.3991C19.0529 2.3991 17.9058 3.4546 16.6166 5.33659C15.9313 6.33648 15.2277 7.55502 14.4376 8.92999L13.568 10.4426C11.8209 13.4837 11.3784 14.1764 10.5049 15.3195C8.9738 17.3212 7.6664 18.0798 5.94527 18.0798C3.90353 18.0798 2.61244 17.2119 1.81283 15.9038C1.16009 14.8379 0.839478 13.4394 0.839478 11.8458L3.82098 11.9504Z" fill="#0081FB"/>
<path d="M3.19031 3.59502C4.55723 1.52643 6.52985 0.079834 8.79238 0.079834C10.1027 0.079834 11.4053 0.460567 12.7655 1.55093C14.2533 2.74308 15.8391 4.70612 17.8175 7.9414L18.5269 9.10245C20.2394 11.9033 21.2137 13.3442 21.7839 14.0237C22.5172 14.8964 23.0308 15.1565 23.6979 15.1565C25.3903 15.1565 25.8126 13.6298 25.8126 11.8826L28.4428 11.8015C28.4428 13.6279 28.0761 14.9699 27.4522 16.0301C26.8493 17.0554 25.6744 18.0798 23.6979 18.0798C22.4693 18.0798 21.3807 17.8178 20.177 16.703C19.2516 15.8473 18.1698 14.3272 17.3375 12.9607L14.8619 8.90078C13.6198 6.86329 12.4804 5.34413 11.8209 4.65617C11.1115 3.91638 10.1996 3.02298 8.74438 3.02298C7.56656 3.02298 6.56633 3.83439 5.72928 5.07554L3.19031 3.59502Z" fill="url(#paint0_linear_397_2921)"/>
<path d="M8.74438 3.02298C7.56657 3.02298 6.56633 3.83439 5.72929 5.07554C4.54571 6.82936 3.82098 9.44172 3.82098 11.9504C3.82098 12.9852 4.05231 13.7796 4.35469 14.2603L1.81283 15.9038C1.16009 14.8379 0.839478 13.4394 0.839478 11.8458C0.839478 8.9479 1.64965 5.92748 3.19031 3.59502C4.55723 1.52643 6.52986 0.079834 8.79238 0.079834L8.74438 3.02298Z" fill="url(#paint1_linear_397_2921)"/>
<path d="M34.2388 0.649048H37.6877L43.5519 11.0645L49.417 0.649048H52.7911V17.7632H49.9775V4.64674L44.8343 13.7297H42.1946L37.0523 4.64674V17.7632H34.2388V0.649048ZM61.6069 7.03009C59.5892 7.03009 58.3739 8.52099 58.0831 10.3672H64.9311C64.79 8.46538 63.6727 7.03009 61.6069 7.03009ZM55.2936 11.4189C55.2936 7.53428 57.8508 4.70706 61.6559 4.70706C65.3986 4.70706 67.6333 7.49847 67.6333 11.6262V12.3849H58.0831C58.4219 14.3931 59.7792 15.7464 61.9679 15.7464C63.7139 15.7464 64.8054 15.2234 65.8402 14.2668L67.3347 16.064C65.9265 17.3353 64.1353 18.0685 61.868 18.0685C57.749 18.0685 55.2936 15.1197 55.2936 11.4189ZM71.0448 7.27512H68.455V5.01334H71.0448V1.27292H73.7595V5.01334H77.6942V7.27512H73.7595V13.0078C73.7595 14.9652 74.3968 15.6607 75.9634 15.6607C76.6786 15.6607 77.0884 15.6004 77.6942 15.5014V17.7387C76.9397 17.9479 76.2197 18.044 75.4403 18.044C72.5096 18.044 71.0448 16.4721 71.0448 13.3254V7.27512ZM89.1248 9.4747C88.5796 8.12329 87.3634 7.12811 85.576 7.12811C83.253 7.12811 81.7661 8.74622 81.7661 11.3821C81.7661 13.9521 83.135 15.6484 85.4647 15.6484C87.2962 15.6484 88.6036 14.6023 89.1248 13.3009V9.4747ZM91.8395 17.7632H89.1747V15.9783C88.4298 17.029 87.0744 18.0685 84.8791 18.0685C81.3485 18.0685 78.9891 15.1668 78.9891 11.3821C78.9891 7.56161 81.4052 4.70706 85.0289 4.70706C86.8201 4.70706 88.2254 5.4101 89.1747 6.65125V5.01334H91.8395V17.7632Z" fill="#3B4B6D"/>
<defs>
<linearGradient id="paint0_linear_397_2921" x1="6.69496" y1="11.106" x2="25.6995" y2="12.0837" gradientUnits="userSpaceOnUse">
<stop stop-color="#0064E1"/>
<stop offset="0.4" stop-color="#0064E1"/>
<stop offset="0.83" stop-color="#0073EE"/>
<stop offset="1" stop-color="#0082FB"/>
</linearGradient>
<linearGradient id="paint1_linear_397_2921" x1="5.1591" y1="13.1793" x2="5.1591" y2="6.29973" gradientUnits="userSpaceOnUse">
<stop stop-color="#0082FB"/>
<stop offset="1" stop-color="#0064E0"/>
</linearGradient>
</defs>
</svg>
