<svg width="115" height="19" viewBox="0 0 115 19" fill="none" xmlns="http://www.w3.org/2000/svg">
<path d="M41.0413 1.30017V17.7747H38.2285V4.84678H38.191L33.1656 17.7747H31.2905L26.1526 4.84678H26.1151V17.7747H23.5273V1.30017H27.5777L32.228 13.5036H32.3031L37.2159 1.30017H41.0413ZM43.3664 2.55865C43.3664 2.10102 43.5165 1.71966 43.854 1.41458C44.1915 1.10949 44.5665 0.956953 45.0166 0.956953C45.5041 0.956953 45.9166 1.10949 46.2167 1.41458C46.5167 1.71966 46.7042 2.10102 46.7042 2.55865C46.7042 3.01627 46.5542 3.39763 46.2167 3.70272C45.8791 4.0078 45.5041 4.16034 45.0166 4.16034C44.529 4.16034 44.154 4.0078 43.854 3.70272C43.554 3.3595 43.3664 2.97814 43.3664 2.55865ZM46.4042 5.95272V17.7747H43.6665V5.95272H46.4042ZM54.6924 15.7536C55.1049 15.7536 55.5549 15.6773 56.0425 15.4485C56.53 15.2578 56.98 14.9908 57.3926 14.6858V17.279C56.9425 17.5459 56.455 17.7366 55.8924 17.851C55.3299 17.9654 54.7299 18.0417 54.0548 18.0417C52.3297 18.0417 50.942 17.5078 49.892 16.4019C48.8044 15.2959 48.2793 13.8849 48.2793 12.207C48.2793 10.3002 48.8419 8.73661 49.9295 7.51627C51.0171 6.29594 52.5547 5.68577 54.5798 5.68577C55.1049 5.68577 55.6299 5.76204 56.1175 5.87644C56.6425 5.99085 57.055 6.18153 57.3551 6.33407V9.00356C56.9425 8.69848 56.4925 8.43153 56.08 8.27899C55.6299 8.12644 55.1799 8.01204 54.7299 8.01204C53.6423 8.01204 52.7797 8.35526 52.1046 9.07983C51.4296 9.80441 51.1296 10.7578 51.1296 11.9781C51.1296 13.1603 51.4671 14.1137 52.1046 14.762C52.7422 15.4103 53.6048 15.7536 54.6924 15.7536ZM65.1557 5.76204C65.3807 5.76204 65.5682 5.76204 65.7557 5.80017C65.9433 5.83831 66.0933 5.87644 66.2058 5.91458V8.73661C66.0558 8.62221 65.8683 8.5078 65.5682 8.43153C65.2682 8.35526 64.9682 8.27899 64.5556 8.27899C63.8806 8.27899 63.318 8.58407 62.868 9.1561C62.418 9.72814 62.1554 10.6053 62.1554 11.8256V17.7747H59.4177V5.95272H62.1554V7.82136H62.193C62.4555 7.17305 62.8305 6.67729 63.318 6.29594C63.8431 5.95271 64.4431 5.76204 65.1557 5.76204ZM66.3558 12.0544C66.3558 10.1095 66.9183 8.54594 67.9684 7.40187C69.056 6.2578 70.5561 5.68577 72.4688 5.68577C74.2689 5.68577 75.694 6.21966 76.7066 7.3256C77.7192 8.43153 78.2442 9.91882 78.2442 11.7875C78.2442 13.6942 77.6817 15.2197 76.6316 16.3637C75.544 17.5078 74.0814 18.0798 72.2063 18.0798C70.4061 18.0798 68.981 17.5459 67.9309 16.4781C66.8808 15.3722 66.3558 13.8849 66.3558 12.0544ZM69.206 11.94C69.206 13.1603 69.4685 14.1137 70.0311 14.762C70.5936 15.4103 71.3812 15.7536 72.3938 15.7536C73.3689 15.7536 74.1564 15.4485 74.6815 14.762C75.2065 14.1137 75.469 13.1603 75.469 11.8637C75.469 10.6053 75.2065 9.65187 74.6815 8.96543C74.1564 8.31712 73.3689 7.9739 72.4313 7.9739C71.4187 7.9739 70.6686 8.31712 70.1061 9.00356C69.4685 9.72814 69.206 10.6815 69.206 11.94ZM82.3321 9.07983C82.3321 9.46119 82.4446 9.80441 82.7071 10.0332C82.9696 10.262 83.4947 10.529 84.3572 10.8722C85.4448 11.3298 86.2324 11.8256 86.6449 12.3595C87.095 12.9315 87.32 13.5798 87.32 14.3807C87.32 15.4866 86.9074 16.3637 86.0449 17.0502C85.2198 17.7366 84.0572 18.0417 82.6321 18.0417C82.1446 18.0417 81.6195 17.9654 81.0195 17.851C80.4194 17.7366 79.9319 17.5841 79.5193 17.3934V14.6476C80.0069 14.9909 80.5694 15.2959 81.132 15.4866C81.6945 15.6773 82.2196 15.7917 82.7071 15.7917C83.3072 15.7917 83.7947 15.7154 84.0572 15.5247C84.3572 15.3341 84.5072 15.0671 84.5072 14.6476C84.5072 14.2663 84.3572 13.9612 84.0572 13.6561C83.7572 13.3892 83.1571 13.0841 82.3321 12.7409C81.3195 12.3214 80.6069 11.8256 80.1944 11.2917C79.7819 10.7578 79.5569 10.0714 79.5569 9.23238C79.5569 8.16458 79.9694 7.28746 80.7944 6.60102C81.6195 5.91458 82.7071 5.57136 84.0197 5.57136C84.4322 5.57136 84.8823 5.60949 85.3698 5.7239C85.8574 5.83831 86.3074 5.95271 86.6449 6.06712V8.77475C86.2699 8.54593 85.8574 8.31712 85.3698 8.12644C84.8823 7.93577 84.3947 7.8595 83.9447 7.8595C83.4197 7.8595 83.0071 7.9739 82.7446 8.16458C82.4821 8.43153 82.3321 8.69848 82.3321 9.07983ZM88.4826 12.0544C88.4826 10.1095 89.0451 8.54594 90.0952 7.40187C91.1828 6.2578 92.6829 5.68577 94.5956 5.68577C96.3957 5.68577 97.8208 6.21966 98.8334 7.3256C99.846 8.43153 100.371 9.91882 100.371 11.7875C100.371 13.6942 99.8085 15.2197 98.7584 16.3637C97.6708 17.5078 96.2082 18.0798 94.333 18.0798C92.5329 18.0798 91.1078 17.5459 90.0577 16.4781C89.0451 15.3722 88.4826 13.8849 88.4826 12.0544ZM91.3328 11.94C91.3328 13.1603 91.5953 14.1137 92.1579 14.762C92.7204 15.4103 93.508 15.7536 94.5206 15.7536C95.4956 15.7536 96.2832 15.4485 96.8082 14.762C97.3333 14.1137 97.5958 13.1603 97.5958 11.8637C97.5958 10.6053 97.3333 9.65187 96.8082 8.96543C96.2832 8.31712 95.4956 7.9739 94.5581 7.9739C93.5455 7.9739 92.7954 8.31712 92.2329 9.00356C91.6328 9.72814 91.3328 10.6815 91.3328 11.94ZM109.484 8.24085H105.396V17.7747H102.621V8.24085H100.671V5.95272H102.621V4.31288C102.621 3.09255 103.034 2.06288 103.821 1.26204C104.609 0.46119 105.621 0.079834 106.859 0.079834C107.197 0.079834 107.497 0.11797 107.759 0.11797C108.022 0.11797 108.247 0.194241 108.434 0.270512V2.67305C108.359 2.63492 108.172 2.55865 107.947 2.48238C107.722 2.40611 107.459 2.36797 107.159 2.36797C106.597 2.36797 106.146 2.55865 105.846 2.90187C105.546 3.24509 105.396 3.81712 105.396 4.50356V5.91458H109.484V3.24509L112.222 2.4061V5.91458H114.997V8.20271H112.222V13.7324C112.222 14.457 112.372 14.9527 112.597 15.2578C112.86 15.5629 113.272 15.7154 113.835 15.7154C113.985 15.7154 114.172 15.6773 114.397 15.601C114.622 15.5247 114.81 15.4485 114.96 15.3341V17.6222C114.772 17.7366 114.51 17.8129 114.097 17.8892C113.685 17.9654 113.31 18.0036 112.897 18.0036C111.734 18.0036 110.872 17.6985 110.309 17.0883C109.747 16.4781 109.447 15.5247 109.447 14.2663L109.484 8.24085Z" fill="#3B4B6D"/>
<path d="M9.24765 0.079834H0.839478V8.62983H9.24765V0.079834Z" fill="#F25022"/>
<path d="M18.5409 0.079834H10.1327V8.62983H18.5409V0.079834Z" fill="#7FBA00"/>
<path d="M9.24765 9.52979H0.839478V18.0798H9.24765V9.52979Z" fill="#00A4EF"/>
<path d="M18.5409 9.52979H10.1327V18.0798H18.5409V9.52979Z" fill="#FFB900"/>
</svg>
