<svg width="172" height="32" viewBox="0 0 172 32" fill="none" xmlns="http://www.w3.org/2000/svg">
<path d="M0.0566406 21.5236V31.8498H10.0385V21.5236H0.0566406Z" fill="#1752E2"/>
<path d="M0.0566406 0.389404H13.3428L25.9753 22.3153L16.8538 31.8498L0.0566406 0.389404Z" fill="#9D8EF5"/>
<path d="M27.3521 0.389404H40.3287V31.8498H27.3521V0.389404Z" fill="#1752E2"/>
<path d="M56.8971 24.5345H53.6851V8.27648H55.8411L62.2211 17.4945L68.5351 8.27648H70.7351V24.5345H67.4791V15.3165L62.7491 22.1145H61.6271L56.8971 15.3165V24.5345Z" fill="black"/>
<path d="M73.8072 18.5285C73.8072 14.9491 76.686 12.2145 80.2312 12.2145C83.7763 12.2145 86.6552 14.9491 86.6552 18.5285C86.6552 22.1253 83.7939 24.8425 80.2312 24.8425C76.6684 24.8425 73.8072 22.1253 73.8072 18.5285ZM80.2312 21.9605C82.1067 21.9605 83.5532 20.3744 83.5532 18.5285C83.5532 16.6888 82.0953 15.1185 80.2312 15.1185C78.3391 15.1185 76.9091 16.6631 76.9091 18.5285C76.9091 20.3983 78.3317 21.9605 80.2312 21.9605Z" fill="black"/>
<path d="M94.0901 20.3105L97.0381 12.5445H100.448L95.2341 24.5125H92.8581L87.6661 12.5445H91.0761L94.0901 20.3105Z" fill="black"/>
<path d="M113.7 18.2645C113.7 18.6312 113.663 19.0858 113.59 19.6285H104.592C105.468 23.016 109.66 22.5336 111.962 20.9705L113.194 23.1485C111.669 24.2485 109.923 24.7985 107.958 24.7985C104.276 24.7985 101.446 22.2978 101.446 18.5285C101.446 14.957 104.11 12.2365 107.694 12.2365C111.183 12.2365 113.7 14.7878 113.7 18.2645ZM107.694 14.8105C106.152 14.8105 104.954 15.8419 104.592 17.3185H110.686C110.404 15.8251 109.222 14.8105 107.694 14.8105Z" fill="black"/>
<path d="M119.596 24.5345H116.494V12.5445H119.53V14.2165C120.252 12.8702 121.819 12.2145 123.292 12.2145C126.15 12.2145 127.978 14.4567 127.978 17.2085V24.5345H124.876V18.0445C124.876 16.4922 124.035 15.0745 122.346 15.0745C120.639 15.0745 119.596 16.4928 119.596 18.1105V24.5345Z" fill="black"/>
<path d="M134.81 9.28848C134.81 10.356 133.964 11.2025 132.896 11.2025C131.829 11.2025 130.982 10.356 130.982 9.28848C130.982 8.22754 131.84 7.39648 132.896 7.39648C133.952 7.39648 134.81 8.22754 134.81 9.28848ZM134.436 12.5445V24.5345H131.334V12.5445H134.436Z" fill="black"/>
<path d="M143.204 24.8205C139.972 24.8205 137.704 22.7548 137.704 19.4745V12.5445H140.806V19.4745C140.806 20.9092 141.737 21.9825 143.204 21.9825C144.672 21.9825 145.602 20.9092 145.602 19.4745V12.5445H148.704V19.4745C148.704 22.744 146.426 24.8205 143.204 24.8205Z" fill="black"/>
<path d="M166.53 12.2145C169.471 12.2145 171.414 14.4193 171.414 17.2965V24.5345H168.312V17.8685C168.312 16.3944 167.51 15.0745 165.914 15.0745C164.273 15.0745 163.274 16.3919 163.274 17.9565V24.5345H160.172V17.8905C160.172 16.4103 159.352 15.0745 157.752 15.0745C156.112 15.0745 155.134 16.4294 155.134 17.9785V24.5345H152.032V12.5445H155.068V14.2605C155.769 12.9506 157.257 12.1869 158.72 12.2145C160.181 12.2145 161.62 12.9671 162.24 14.3265C163.172 12.9281 164.886 12.2145 166.53 12.2145Z" fill="black"/>
</svg>
