<svg width="118" height="48" viewBox="0 0 118 48" fill="none" xmlns="http://www.w3.org/2000/svg">
<path d="M29.3242 18.2598C32.8537 19.9116 36.5971 24.3704 36.34 30.4805C36.226 33.1919 35.3073 35.6541 33.643 37.8045C31.7238 40.2843 29.2281 41.9315 26.1625 42.6068C19.6669 44.0378 14.5863 40.575 12.4299 37.2012C17.3324 39.4465 22.9258 39.0814 27.0806 35.5019C32.0624 31.2099 32.969 23.7029 29.3242 18.2598Z" fill="#8C52FF"/>
<path d="M12.6753 20.7171C12.0549 17.0388 12.7622 13.3067 14.9926 10.2905C17.107 7.43114 20.3609 5.58823 23.8734 5.15244C28.1495 4.6219 34.5581 6.40338 36.3231 10.7558C32.6236 8.92558 28.8683 8.70814 25.1235 10.3021C21.3684 11.9005 18.841 14.7215 17.6852 18.6535C16.5311 22.58 17.2142 26.2647 19.3901 29.7346C16.0502 27.7262 13.3436 24.6796 12.6753 20.7171Z" fill="#8C52FF"/>
<path d="M90.6922 16.1161C90.6901 15.8667 90.7674 15.8012 91.0098 15.8035C92.2011 15.8147 93.3928 15.8159 94.5841 15.8028C94.8409 15.8 94.8921 15.8911 94.8912 16.1257C94.8829 18.2904 94.8867 20.455 94.8867 22.6197C95.2545 22.3632 95.5665 22.1219 95.9009 21.917C98.1314 20.5496 101.531 20.663 103.527 22.4049C105.19 23.8558 105.417 26.0254 105.436 28.0999C105.457 30.4827 105.443 32.8657 105.443 35.2486C105.443 35.6356 105.442 35.6366 105.055 35.6368C103.873 35.6372 102.691 35.6304 101.509 35.6422C101.263 35.6446 101.192 35.5737 101.193 35.3275C101.202 32.8235 101.209 30.3195 101.191 27.8157C101.186 27.14 101.07 26.4747 100.706 25.873C99.4083 23.7308 95.7158 24.6371 95.1236 26.9218C94.979 27.4797 94.9036 28.0699 94.897 28.6467C94.8716 30.8525 94.8868 33.0587 94.8866 35.2648C94.8866 35.6359 94.8859 35.6367 94.5275 35.6368C93.3732 35.6372 92.219 35.6371 91.0648 35.6368C90.6986 35.6367 90.6977 35.636 90.6977 35.2727C90.6975 28.8877 90.7441 22.501 90.6922 16.1161Z" fill="#3B3150"/>
<path d="M42.1043 21.591C42.1043 21.2276 42.1051 21.2269 42.4711 21.2268C43.588 21.2265 44.7049 21.2303 45.8217 21.2239C46.0611 21.2225 46.2039 21.2428 46.17 21.5562C46.1297 21.9292 46.1605 22.3099 46.1605 22.7684C46.4599 22.538 46.6961 22.3396 46.9488 22.1652C49.3281 20.5223 53.0754 20.5428 55.2013 22.614C56.3892 23.7714 56.8386 25.459 56.8446 27.0786C56.8548 29.8056 56.8498 32.5327 56.8496 35.2597C56.8496 35.6366 56.8491 35.637 56.468 35.6371C55.3232 35.6373 54.1784 35.6374 53.0336 35.6371C52.6612 35.637 52.6608 35.6364 52.6607 35.2509C52.6606 32.8403 52.6703 30.4296 52.6523 28.0191C52.6411 26.5097 52.0481 24.9865 50.3756 24.7355C48.4767 24.4506 46.4802 25.5724 46.4222 27.6502C46.3517 30.1781 46.3674 32.7084 46.3494 35.2378C46.3466 35.6366 46.3487 35.637 45.9613 35.6371C44.7793 35.6373 43.5972 35.6308 42.4153 35.6423C42.1714 35.6447 42.0979 35.5764 42.0989 35.3287C42.1169 30.7495 42.1038 26.1702 42.1043 21.591Z" fill="#3B3150"/>
<path d="M82.1627 20.945C84.5561 20.9265 87.0985 21.2735 88.7519 23.2403C89.0665 23.6145 89.2677 24.0839 89.5198 24.5106C89.6007 24.6475 89.5818 24.7421 89.4274 24.8238C88.6815 25.2184 87.9404 25.622 87.1977 26.0226C87.0183 26.1194 86.8341 26.2086 86.6619 26.3169C86.4857 26.4276 86.3834 26.4071 86.2599 26.221C85.8705 25.6342 85.3881 25.1432 84.7368 24.8355C83.3792 24.1939 81.646 24.429 80.5598 25.4778C79.3524 26.6435 79.1105 28.6141 79.738 30.1414C80.7068 32.4995 83.9024 33.1462 85.7011 31.3241C85.9263 31.0959 86.0996 30.8146 86.2838 30.5487C86.3706 30.4233 86.4398 30.405 86.5775 30.4814C87.5095 30.9987 88.4473 31.5055 89.3817 32.0184C89.5328 32.1013 89.6906 32.1474 89.5618 32.4108C89.0566 33.4437 88.2976 34.2256 87.3195 34.8106C84.767 36.3373 81.2324 36.1555 78.6985 34.7132C75.5164 32.9018 74.2259 28.6859 75.7973 25.3729C76.8791 23.0922 79.1992 20.968 82.1627 20.945Z" fill="#3B3150"/>
<path d="M70.6552 30.3571C70.6836 31.3214 70.978 32.2524 72.0377 32.4483C72.8519 32.5988 73.7244 32.1838 74.147 31.9885C74.5169 32.9542 74.8872 33.921 75.2728 34.9277C73.7711 35.9103 71.8667 36.0468 70.1357 35.6815C67.5814 35.1425 66.4903 33.0143 66.4642 30.6006C66.4444 28.7765 66.4524 26.952 66.4617 25.1277C66.463 24.8773 66.3997 24.7854 66.1364 24.7946C65.5879 24.8137 65.0381 24.7924 64.4892 24.8042C64.2797 24.8087 64.2168 24.737 64.2188 24.531C64.2278 23.6283 64.2284 22.7253 64.2185 21.8226C64.2162 21.6074 64.2963 21.5534 64.4967 21.5572C65.0457 21.5678 65.5953 21.5497 66.144 21.5658C66.3861 21.5729 66.4658 21.5042 66.4623 21.2537C66.4485 20.2859 66.4648 19.3177 66.4512 18.3499C66.4478 18.1007 66.5256 18.0345 66.7685 18.0368C67.9598 18.0482 69.1514 18.0493 70.3426 18.0362C70.5984 18.0334 70.6533 18.1226 70.6505 18.3584C70.6392 19.3263 70.652 20.2944 70.6414 21.2623C70.6388 21.4907 70.7041 21.5681 70.9392 21.5655C71.9536 21.5543 72.9683 21.5672 73.9827 21.556C74.2173 21.5535 74.2838 21.63 74.2809 21.8589C74.2696 22.743 74.2686 23.6274 74.2813 24.5114C74.2848 24.7525 74.196 24.8066 73.9735 24.8045C72.959 24.7949 71.9444 24.8055 70.9299 24.7963C70.7138 24.7944 70.6379 24.8566 70.6413 25.0801C70.6683 26.8388 70.6034 28.599 70.6552 30.3571Z" fill="#3B3150"/>
<path d="M59.2516 21.5933C59.2516 21.2271 59.2524 21.2264 59.6154 21.2263C60.7877 21.226 61.96 21.2329 63.1321 21.2208C63.3801 21.2182 63.4458 21.2937 63.4454 21.5372C63.4388 26.1332 63.4388 30.7293 63.4454 35.3253C63.4457 35.5683 63.3809 35.6446 63.1325 35.642C61.9417 35.6299 60.7507 35.6299 59.5599 35.642C59.312 35.6445 59.2455 35.5693 59.2465 35.3256C59.2644 30.7483 59.2512 26.1707 59.2516 21.5933Z" fill="#3B3150"/>
<path d="M25.0154 27.7683C22.3982 28.1631 20.2294 25.9742 20.5883 23.3676C21.0241 20.2023 24.9798 19.159 27.1498 21.2801C29.3077 23.3893 27.9669 27.3232 25.0154 27.7683Z" fill="#3B3150"/>
<path d="M59.7081 15.0291C60.6007 14.4208 62.1433 14.4629 62.9292 14.984C64.4856 16.0161 64.2125 18.4808 62.4242 19.0921C61.4247 19.4338 60.4537 19.3609 59.5801 18.7055C58.4002 17.8202 58.5091 15.8462 59.7081 15.0291Z" fill="#3B3150"/>
<path d="M80.2334 21.4639C80.2295 21.5063 80.2184 21.5813 80.1813 21.5977C79.6596 21.8293 79.1344 22.053 78.5882 22.2759C78.8587 22.1067 79.1443 21.9269 79.4452 21.778C79.6921 21.6559 79.9572 21.5707 80.2334 21.4639Z" fill="#3B3150"/>
<path d="M86.3855 21.5978C86.1435 21.5352 85.8872 21.4583 85.6233 21.3643C85.8675 21.4259 86.1194 21.5047 86.3855 21.5978Z" fill="#3B3150"/>
<path d="M80.7921 21.2959C80.7418 21.5197 80.5749 21.5359 80.3721 21.4737C80.5012 21.4061 80.6371 21.3536 80.7921 21.2959Z" fill="#3B3150"/>
<path d="M78.2119 22.499C78.1718 22.5388 78.1131 22.5795 78.0335 22.6202C78.0729 22.5801 78.1331 22.5401 78.2119 22.499Z" fill="#3B3150"/>
<path d="M78.5468 22.2764C78.5229 22.3133 78.4807 22.3515 78.4186 22.3874C78.4421 22.3492 78.4853 22.3134 78.5468 22.2764Z" fill="#3B3150"/>
<path d="M78.3792 22.3877C78.3553 22.4246 78.3131 22.4628 78.2511 22.4987C78.2745 22.4605 78.3177 22.4247 78.3792 22.3877Z" fill="#3B3150"/>
<path d="M81.0153 21.2627C81.001 21.2795 80.9674 21.2982 80.9288 21.3039C80.9478 21.2821 80.972 21.2733 81.0153 21.2627Z" fill="#3B3150"/>
<path d="M86.6686 21.7107C86.6438 21.7179 86.6085 21.7127 86.5691 21.6946C86.596 21.6872 86.6271 21.6928 86.6686 21.7107Z" fill="#3B3150"/>
<path d="M76.4408 24.1982C76.4438 24.2069 76.4345 24.2173 76.4157 24.2332C76.4078 24.2228 76.4152 24.2099 76.4408 24.1982Z" fill="#3B3150"/>
</svg>
