<svg width="49" height="49" viewBox="0 0 49 49" fill="none" xmlns="http://www.w3.org/2000/svg">
<path fill-rule="evenodd" clip-rule="evenodd" d="M24.3525 6.03421C14.3723 6.20829 6.33544 14.353 6.33544 24.3747C6.33544 34.5055 14.5481 42.7181 24.6788 42.7181C34.7972 42.7181 43.0022 34.5255 43.0222 24.4117C42.1857 24.9655 41.1824 25.2885 40.1035 25.2885C38.4068 25.2885 36.8975 24.49 35.9295 23.2511C35.2469 23.4383 34.5288 23.5381 33.7886 23.5381C29.3278 23.5381 25.7116 19.9219 25.7116 15.4611C25.7116 14.6943 25.8187 13.9514 26.0191 13.247C24.6477 12.1663 23.7651 10.489 23.7651 8.60486C23.7651 7.68385 23.9763 6.81148 24.3525 6.03421ZM4.50793 24.3747C4.50793 13.2347 13.5387 4.20386 24.6788 4.20386C25.1619 4.20386 25.6413 4.22084 26.1162 4.2543C26.469 4.27916 26.7758 4.50542 26.9038 4.83516C27.0318 5.1649 26.958 5.53889 26.7143 5.79528C26.0183 6.52763 25.5926 7.51556 25.5926 8.60486C25.5926 10.0888 26.3844 11.3887 27.5729 12.1036C27.9531 12.3323 28.1141 12.801 27.9546 13.2151C27.6865 13.9109 27.5391 14.6677 27.5391 15.4611C27.5391 18.9126 30.3371 21.7106 33.7886 21.7106C34.5617 21.7106 35.3 21.5707 35.981 21.3155C36.4002 21.1585 36.8714 21.3282 37.0942 21.7165C37.6933 22.7609 38.8172 23.461 40.1035 23.461C41.346 23.461 42.4368 22.8078 43.0499 21.8216C43.2559 21.4904 43.6494 21.3264 44.0297 21.4133C44.4099 21.5003 44.693 21.8191 44.7345 22.207C44.8107 22.9194 44.8497 23.6427 44.8497 24.3747C44.8497 35.5148 35.8189 44.5456 24.6788 44.5456C13.5387 44.5456 4.50793 35.5148 4.50793 24.3747Z" fill="#282829"/>
<circle cx="36.9262" cy="6.2311" r="2.06704" fill="#282829"/>
<circle cx="14.6596" cy="21.9221" r="2.7535" fill="#282829"/>
<circle cx="35.6041" cy="13.5026" r="1.70975" fill="#282829"/>
<circle cx="17.0558" cy="32.0708" r="2.23342" fill="#282829"/>
<circle cx="24.2983" cy="24.949" r="1.70975" fill="#282829"/>
<circle cx="21.371" cy="16.207" r="1.58275" fill="#282829"/>
<circle cx="36.8719" cy="30.1039" r="1.96701" fill="#282829"/>
<circle cx="44.0695" cy="16.0746" r="1.28607" fill="#282829"/>
<circle cx="29.3132" cy="30.1038" r="1.28607" fill="#282829"/>
<circle cx="25.8703" cy="37.0605" r="1.10465" fill="#282829"/>
</svg>
