<svg width="36" height="36" viewBox="0 0 36 36" fill="none" xmlns="http://www.w3.org/2000/svg">
  <path
    d="M32.551 18.992c0 7.843-6.358 14.2-14.2 14.2-3.119 0-4.521-.51-6.864-2.215L5.673 32.32s1.282-3.727 1.738-4.696c-2.22-2.506-3.26-5.019-3.26-8.63 0-7.843 6.357-14.201 14.2-14.201 7.842 0 14.2 6.358 14.2 14.2Z"
    fill="#27D045" />
  <path fill-rule="evenodd" clip-rule="evenodd"
    d="M18.592 5.995c-7.045 0-12.756 5.712-12.756 12.757 0 2.533.737 4.89 2.008 6.874l.261.407-.974 4.958 5.218-1.104.382.198a12.697 12.697 0 0 0 5.86 1.423c7.046 0 12.757-5.711 12.757-12.756S25.637 5.995 18.592 5.995ZM3.429 18.752c0-8.375 6.788-15.164 15.163-15.164 8.374 0 15.163 6.79 15.163 15.164 0 8.374-6.789 15.163-15.163 15.163-2.354 0-4.586-.538-6.576-1.497L4.066 34.1l1.493-7.594a15.098 15.098 0 0 1-2.13-7.754Z"
    fill="#fff" />
  <path
    d="M12.559 11.836c-2.273 1.577-2.3 4.511-.963 6.739a24.492 24.492 0 0 0 4.14 4.717 14.528 14.528 0 0 0 4.621 2.455c1.906.76 4.093.413 5.392-1.251.253-.63.406-1.344.288-2.022-.048-.337-3.514-1.926-3.85-1.83-.338.097-.626.723-1.012 1.252-.385.53-.529.77-.914.77s-2.07-.674-3.659-2.118a7.642 7.642 0 0 1-2.07-2.888s.29-.337.675-.866c.3-.329.514-.725.625-1.156 0-.24-1.348-3.658-1.684-3.802a5.703 5.703 0 0 0-1.589 0Z"
    fill="#fff" />
</svg>
