<svg width="24" height="24" viewBox="0 0 24 24" fill="none" xmlns="http://www.w3.org/2000/svg">
<path d="M19.125 11.6887C19.125 11.4627 19.0271 11.2367 18.8538 11.0709L13.8817 6.10637C13.7009 5.9331 13.505 5.85024 13.2866 5.85024C12.8119 5.85024 12.4654 6.18924 12.4654 6.64879C12.4654 6.88986 12.5558 7.09326 12.714 7.24393L14.409 8.96156L16.5938 10.9579L14.8384 10.8525L5.70787 10.8525C5.21066 10.8525 4.86412 11.199 4.86412 11.6887C4.86412 12.1859 5.21066 12.5324 5.70787 12.5324L14.8384 12.5324L16.5862 12.427L14.409 14.4233L12.714 16.141C12.5558 16.2916 12.4654 16.495 12.4654 16.7361C12.4654 17.1957 12.8119 17.5347 13.2866 17.5347C13.505 17.5347 13.7084 17.4518 13.9043 17.2635L18.8538 12.314C19.0271 12.1482 19.125 11.9222 19.125 11.6887Z" fill="white"/>
</svg>
