<svg width="1147" height="1147" viewBox="0 0 1147 1147" fill="none" xmlns="http://www.w3.org/2000/svg">
<g clip-path="url(#clip0_2252_6456)">
<path d="M1147 0H0V1147H1147V0Z" fill="white"/>
<path d="M403 62H372V93H403V62Z" fill="black"/>
<path d="M558 62H527V93H558V62Z" fill="black"/>
<path d="M682 62H651V93H682V62Z" fill="black"/>
<path d="M713 62H682V93H713V62Z" fill="black"/>
<path d="M806 62H775V93H806V62Z" fill="black"/>
<path d="M837 62H806V93H837V62Z" fill="black"/>
<path d="M341 93H310V124H341V93Z" fill="black"/>
<path d="M372 93H341V124H372V93Z" fill="black"/>
<path d="M403 93H372V124H403V93Z" fill="black"/>
<path d="M434 93H403V124H434V93Z" fill="black"/>
<path d="M558 93H527V124H558V93Z" fill="black"/>
<path d="M589 93H558V124H589V93Z" fill="black"/>
<path d="M713 93H682V124H713V93Z" fill="black"/>
<path d="M744 93H713V124H744V93Z" fill="black"/>
<path d="M837 93H806V124H837V93Z" fill="black"/>
<path d="M372 124H341V155H372V124Z" fill="black"/>
<path d="M496 124H465V155H496V124Z" fill="black"/>
<path d="M558 124H527V155H558V124Z" fill="black"/>
<path d="M744 124H713V155H744V124Z" fill="black"/>
<path d="M372 155H341V186H372V155Z" fill="black"/>
<path d="M434 155H403V186H434V155Z" fill="black"/>
<path d="M527 155H496V186H527V155Z" fill="black"/>
<path d="M589 155H558V186H589V155Z" fill="black"/>
<path d="M651 155H620V186H651V155Z" fill="black"/>
<path d="M775 155H744V186H775V155Z" fill="black"/>
<path d="M372 186H341V217H372V186Z" fill="black"/>
<path d="M403 186H372V217H403V186Z" fill="black"/>
<path d="M434 186H403V217H434V186Z" fill="black"/>
<path d="M465 186H434V217H465V186Z" fill="black"/>
<path d="M496 186H465V217H496V186Z" fill="black"/>
<path d="M558 186H527V217H558V186Z" fill="black"/>
<path d="M589 186H558V217H589V186Z" fill="black"/>
<path d="M713 186H682V217H713V186Z" fill="black"/>
<path d="M775 186H744V217H775V186Z" fill="black"/>
<path d="M341 217H310V248H341V217Z" fill="black"/>
<path d="M403 217H372V248H403V217Z" fill="black"/>
<path d="M434 217H403V248H434V217Z" fill="black"/>
<path d="M465 217H434V248H465V217Z" fill="black"/>
<path d="M558 217H527V248H558V217Z" fill="black"/>
<path d="M620 217H589V248H620V217Z" fill="black"/>
<path d="M651 217H620V248H651V217Z" fill="black"/>
<path d="M682 217H651V248H682V217Z" fill="black"/>
<path d="M713 217H682V248H713V217Z" fill="black"/>
<path d="M744 217H713V248H744V217Z" fill="black"/>
<path d="M775 217H744V248H775V217Z" fill="black"/>
<path d="M806 217H775V248H806V217Z" fill="black"/>
<path d="M837 217H806V248H837V217Z" fill="black"/>
<path d="M341 248H310V279H341V248Z" fill="black"/>
<path d="M403 248H372V279H403V248Z" fill="black"/>
<path d="M465 248H434V279H465V248Z" fill="black"/>
<path d="M527 248H496V279H527V248Z" fill="black"/>
<path d="M589 248H558V279H589V248Z" fill="black"/>
<path d="M651 248H620V279H651V248Z" fill="black"/>
<path d="M713 248H682V279H713V248Z" fill="black"/>
<path d="M775 248H744V279H775V248Z" fill="black"/>
<path d="M837 248H806V279H837V248Z" fill="black"/>
<path d="M341 279H310V310H341V279Z" fill="black"/>
<path d="M372 279H341V310H372V279Z" fill="black"/>
<path d="M558 279H527V310H558V279Z" fill="black"/>
<path d="M620 279H589V310H620V279Z" fill="black"/>
<path d="M651 279H620V310H651V279Z" fill="black"/>
<path d="M682 279H651V310H682V279Z" fill="black"/>
<path d="M744 279H713V310H744V279Z" fill="black"/>
<path d="M775 279H744V310H775V279Z" fill="black"/>
<path d="M837 279H806V310H837V279Z" fill="black"/>
<path d="M217 310H186V341H217V310Z" fill="black"/>
<path d="M248 310H217V341H248V310Z" fill="black"/>
<path d="M279 310H248V341H279V310Z" fill="black"/>
<path d="M310 310H279V341H310V310Z" fill="black"/>
<path d="M403 310H372V341H403V310Z" fill="black"/>
<path d="M434 310H403V341H434V310Z" fill="black"/>
<path d="M465 310H434V341H465V310Z" fill="black"/>
<path d="M527 310H496V341H527V310Z" fill="black"/>
<path d="M558 310H527V341H558V310Z" fill="black"/>
<path d="M589 310H558V341H589V310Z" fill="black"/>
<path d="M651 310H620V341H651V310Z" fill="black"/>
<path d="M682 310H651V341H682V310Z" fill="black"/>
<path d="M713 310H682V341H713V310Z" fill="black"/>
<path d="M744 310H713V341H744V310Z" fill="black"/>
<path d="M806 310H775V341H806V310Z" fill="black"/>
<path d="M899 310H868V341H899V310Z" fill="black"/>
<path d="M930 310H899V341H930V310Z" fill="black"/>
<path d="M1054 310H1023V341H1054V310Z" fill="black"/>
<path d="M186 341H155V372H186V341Z" fill="black"/>
<path d="M248 341H217V372H248V341Z" fill="black"/>
<path d="M310 341H279V372H310V341Z" fill="black"/>
<path d="M341 341H310V372H341V341Z" fill="black"/>
<path d="M403 341H372V372H403V341Z" fill="black"/>
<path d="M496 341H465V372H496V341Z" fill="black"/>
<path d="M527 341H496V372H527V341Z" fill="black"/>
<path d="M558 341H527V372H558V341Z" fill="black"/>
<path d="M589 341H558V372H589V341Z" fill="black"/>
<path d="M775 341H744V372H775V341Z" fill="black"/>
<path d="M806 341H775V372H806V341Z" fill="black"/>
<path d="M837 341H806V372H837V341Z" fill="black"/>
<path d="M930 341H899V372H930V341Z" fill="black"/>
<path d="M992 341H961V372H992V341Z" fill="black"/>
<path d="M1023 341H992V372H1023V341Z" fill="black"/>
<path d="M1054 341H1023V372H1054V341Z" fill="black"/>
<path d="M93 372H62V403H93V372Z" fill="black"/>
<path d="M124 372H93V403H124V372Z" fill="black"/>
<path d="M155 372H124V403H155V372Z" fill="black"/>
<path d="M186 372H155V403H186V372Z" fill="black"/>
<path d="M217 372H186V403H217V372Z" fill="black"/>
<path d="M248 372H217V403H248V372Z" fill="black"/>
<path d="M279 372H248V403H279V372Z" fill="black"/>
<path d="M403 372H372V403H403V372Z" fill="black"/>
<path d="M496 372H465V403H496V372Z" fill="black"/>
<path d="M558 372H527V403H558V372Z" fill="black"/>
<path d="M744 372H713V403H744V372Z" fill="black"/>
<path d="M775 372H744V403H775V372Z" fill="black"/>
<path d="M806 372H775V403H806V372Z" fill="black"/>
<path d="M837 372H806V403H837V372Z" fill="black"/>
<path d="M868 372H837V403H868V372Z" fill="black"/>
<path d="M899 372H868V403H899V372Z" fill="black"/>
<path d="M930 372H899V403H930V372Z" fill="black"/>
<path d="M961 372H930V403H961V372Z" fill="black"/>
<path d="M992 372H961V403H992V372Z" fill="black"/>
<path d="M1054 372H1023V403H1054V372Z" fill="black"/>
<path d="M93 403H62V434H93V403Z" fill="black"/>
<path d="M155 403H124V434H155V403Z" fill="black"/>
<path d="M248 403H217V434H248V403Z" fill="black"/>
<path d="M806 403H775V434H806V403Z" fill="black"/>
<path d="M868 403H837V434H868V403Z" fill="black"/>
<path d="M961 403H930V434H961V403Z" fill="black"/>
<path d="M992 403H961V434H992V403Z" fill="black"/>
<path d="M1054 403H1023V434H1054V403Z" fill="black"/>
<path d="M1085 403H1054V434H1085V403Z" fill="black"/>
<path d="M186 434H155V465H186V434Z" fill="black"/>
<path d="M217 434H186V465H217V434Z" fill="black"/>
<path d="M248 434H217V465H248V434Z" fill="black"/>
<path d="M279 434H248V465H279V434Z" fill="black"/>
<path d="M372 434H341V465H372V434Z" fill="black"/>
<path d="M806 434H775V465H806V434Z" fill="black"/>
<path d="M899 434H868V465H899V434Z" fill="black"/>
<path d="M930 434H899V465H930V434Z" fill="black"/>
<path d="M992 434H961V465H992V434Z" fill="black"/>
<path d="M1085 434H1054V465H1085V434Z" fill="black"/>
<path d="M93 465H62V496H93V465Z" fill="black"/>
<path d="M124 465H93V496H124V465Z" fill="black"/>
<path d="M155 465H124V496H155V465Z" fill="black"/>
<path d="M217 465H186V496H217V465Z" fill="black"/>
<path d="M310 465H279V496H310V465Z" fill="black"/>
<path d="M372 465H341V496H372V465Z" fill="black"/>
<path d="M775 465H744V496H775V465Z" fill="black"/>
<path d="M806 465H775V496H806V465Z" fill="black"/>
<path d="M837 465H806V496H837V465Z" fill="black"/>
<path d="M868 465H837V496H868V465Z" fill="black"/>
<path d="M992 465H961V496H992V465Z" fill="black"/>
<path d="M1023 465H992V496H1023V465Z" fill="black"/>
<path d="M1054 465H1023V496H1054V465Z" fill="black"/>
<path d="M93 496H62V527H93V496Z" fill="black"/>
<path d="M186 496H155V527H186V496Z" fill="black"/>
<path d="M248 496H217V527H248V496Z" fill="black"/>
<path d="M279 496H248V527H279V496Z" fill="black"/>
<path d="M403 496H372V527H403V496Z" fill="black"/>
<path d="M806 496H775V527H806V496Z" fill="black"/>
<path d="M837 496H806V527H837V496Z" fill="black"/>
<path d="M899 496H868V527H899V496Z" fill="black"/>
<path d="M961 496H930V527H961V496Z" fill="black"/>
<path d="M1023 496H992V527H1023V496Z" fill="black"/>
<path d="M1054 496H1023V527H1054V496Z" fill="black"/>
<path d="M93 527H62V558H93V527Z" fill="black"/>
<path d="M124 527H93V558H124V527Z" fill="black"/>
<path d="M155 527H124V558H155V527Z" fill="black"/>
<path d="M217 527H186V558H217V527Z" fill="black"/>
<path d="M248 527H217V558H248V527Z" fill="black"/>
<path d="M310 527H279V558H310V527Z" fill="black"/>
<path d="M837 527H806V558H837V527Z" fill="black"/>
<path d="M930 527H899V558H930V527Z" fill="black"/>
<path d="M961 527H930V558H961V527Z" fill="black"/>
<path d="M992 527H961V558H992V527Z" fill="black"/>
<path d="M1054 527H1023V558H1054V527Z" fill="black"/>
<path d="M1085 527H1054V558H1085V527Z" fill="black"/>
<path d="M124 558H93V589H124V558Z" fill="black"/>
<path d="M217 558H186V589H217V558Z" fill="black"/>
<path d="M279 558H248V589H279V558Z" fill="black"/>
<path d="M310 558H279V589H310V558Z" fill="black"/>
<path d="M341 558H310V589H341V558Z" fill="black"/>
<path d="M403 558H372V589H403V558Z" fill="black"/>
<path d="M806 558H775V589H806V558Z" fill="black"/>
<path d="M868 558H837V589H868V558Z" fill="black"/>
<path d="M899 558H868V589H899V558Z" fill="black"/>
<path d="M930 558H899V589H930V558Z" fill="black"/>
<path d="M961 558H930V589H961V558Z" fill="black"/>
<path d="M1023 558H992V589H1023V558Z" fill="black"/>
<path d="M1054 558H1023V589H1054V558Z" fill="black"/>
<path d="M93 589H62V620H93V589Z" fill="black"/>
<path d="M217 589H186V620H217V589Z" fill="black"/>
<path d="M248 589H217V620H248V589Z" fill="black"/>
<path d="M806 589H775V620H806V589Z" fill="black"/>
<path d="M837 589H806V620H837V589Z" fill="black"/>
<path d="M124 620H93V651H124V620Z" fill="black"/>
<path d="M186 620H155V651H186V620Z" fill="black"/>
<path d="M217 620H186V651H217V620Z" fill="black"/>
<path d="M279 620H248V651H279V620Z" fill="black"/>
<path d="M310 620H279V651H310V620Z" fill="black"/>
<path d="M372 620H341V651H372V620Z" fill="black"/>
<path d="M806 620H775V651H806V620Z" fill="black"/>
<path d="M837 620H806V651H837V620Z" fill="black"/>
<path d="M868 620H837V651H868V620Z" fill="black"/>
<path d="M899 620H868V651H899V620Z" fill="black"/>
<path d="M992 620H961V651H992V620Z" fill="black"/>
<path d="M217 651H186V682H217V651Z" fill="black"/>
<path d="M310 651H279V682H310V651Z" fill="black"/>
<path d="M899 651H868V682H899V651Z" fill="black"/>
<path d="M961 651H930V682H961V651Z" fill="black"/>
<path d="M1054 651H1023V682H1054V651Z" fill="black"/>
<path d="M1085 651H1054V682H1085V651Z" fill="black"/>
<path d="M279 682H248V713H279V682Z" fill="black"/>
<path d="M310 682H279V713H310V682Z" fill="black"/>
<path d="M341 682H310V713H341V682Z" fill="black"/>
<path d="M961 682H930V713H961V682Z" fill="black"/>
<path d="M992 682H961V713H992V682Z" fill="black"/>
<path d="M1085 682H1054V713H1085V682Z" fill="black"/>
<path d="M93 713H62V744H93V713Z" fill="black"/>
<path d="M155 713H124V744H155V713Z" fill="black"/>
<path d="M217 713H186V744H217V713Z" fill="black"/>
<path d="M248 713H217V744H248V713Z" fill="black"/>
<path d="M341 713H310V744H341V713Z" fill="black"/>
<path d="M372 713H341V744H372V713Z" fill="black"/>
<path d="M775 713H744V744H775V713Z" fill="black"/>
<path d="M837 713H806V744H837V713Z" fill="black"/>
<path d="M868 713H837V744H868V713Z" fill="black"/>
<path d="M899 713H868V744H899V713Z" fill="black"/>
<path d="M930 713H899V744H930V713Z" fill="black"/>
<path d="M1023 713H992V744H1023V713Z" fill="black"/>
<path d="M155 744H124V775H155V744Z" fill="black"/>
<path d="M217 744H186V775H217V744Z" fill="black"/>
<path d="M248 744H217V775H248V744Z" fill="black"/>
<path d="M279 744H248V775H279V744Z" fill="black"/>
<path d="M310 744H279V775H310V744Z" fill="black"/>
<path d="M341 744H310V775H341V744Z" fill="black"/>
<path d="M372 744H341V775H372V744Z" fill="black"/>
<path d="M465 744H434V775H465V744Z" fill="black"/>
<path d="M496 744H465V775H496V744Z" fill="black"/>
<path d="M558 744H527V775H558V744Z" fill="black"/>
<path d="M651 744H620V775H651V744Z" fill="black"/>
<path d="M713 744H682V775H713V744Z" fill="black"/>
<path d="M806 744H775V775H806V744Z" fill="black"/>
<path d="M837 744H806V775H837V744Z" fill="black"/>
<path d="M930 744H899V775H930V744Z" fill="black"/>
<path d="M155 775H124V806H155V775Z" fill="black"/>
<path d="M186 775H155V806H186V775Z" fill="black"/>
<path d="M217 775H186V806H217V775Z" fill="black"/>
<path d="M372 775H341V806H372V775Z" fill="black"/>
<path d="M403 775H372V806H403V775Z" fill="black"/>
<path d="M558 775H527V806H558V775Z" fill="black"/>
<path d="M620 775H589V806H620V775Z" fill="black"/>
<path d="M651 775H620V806H651V775Z" fill="black"/>
<path d="M682 775H651V806H682V775Z" fill="black"/>
<path d="M744 775H713V806H744V775Z" fill="black"/>
<path d="M806 775H775V806H806V775Z" fill="black"/>
<path d="M992 775H961V806H992V775Z" fill="black"/>
<path d="M93 806H62V837H93V806Z" fill="black"/>
<path d="M124 806H93V837H124V806Z" fill="black"/>
<path d="M155 806H124V837H155V806Z" fill="black"/>
<path d="M186 806H155V837H186V806Z" fill="black"/>
<path d="M217 806H186V837H217V806Z" fill="black"/>
<path d="M279 806H248V837H279V806Z" fill="black"/>
<path d="M341 806H310V837H341V806Z" fill="black"/>
<path d="M403 806H372V837H403V806Z" fill="black"/>
<path d="M465 806H434V837H465V806Z" fill="black"/>
<path d="M651 806H620V837H651V806Z" fill="black"/>
<path d="M682 806H651V837H682V806Z" fill="black"/>
<path d="M713 806H682V837H713V806Z" fill="black"/>
<path d="M744 806H713V837H744V806Z" fill="black"/>
<path d="M837 806H806V837H837V806Z" fill="black"/>
<path d="M868 806H837V837H868V806Z" fill="black"/>
<path d="M899 806H868V837H899V806Z" fill="black"/>
<path d="M930 806H899V837H930V806Z" fill="black"/>
<path d="M961 806H930V837H961V806Z" fill="black"/>
<path d="M1054 806H1023V837H1054V806Z" fill="black"/>
<path d="M341 837H310V868H341V837Z" fill="black"/>
<path d="M372 837H341V868H372V837Z" fill="black"/>
<path d="M434 837H403V868H434V837Z" fill="black"/>
<path d="M465 837H434V868H465V837Z" fill="black"/>
<path d="M496 837H465V868H496V837Z" fill="black"/>
<path d="M527 837H496V868H527V837Z" fill="black"/>
<path d="M589 837H558V868H589V837Z" fill="black"/>
<path d="M620 837H589V868H620V837Z" fill="black"/>
<path d="M651 837H620V868H651V837Z" fill="black"/>
<path d="M682 837H651V868H682V837Z" fill="black"/>
<path d="M713 837H682V868H713V837Z" fill="black"/>
<path d="M744 837H713V868H744V837Z" fill="black"/>
<path d="M775 837H744V868H775V837Z" fill="black"/>
<path d="M806 837H775V868H806V837Z" fill="black"/>
<path d="M837 837H806V868H837V837Z" fill="black"/>
<path d="M961 837H930V868H961V837Z" fill="black"/>
<path d="M992 837H961V868H992V837Z" fill="black"/>
<path d="M1023 837H992V868H1023V837Z" fill="black"/>
<path d="M341 868H310V899H341V868Z" fill="black"/>
<path d="M403 868H372V899H403V868Z" fill="black"/>
<path d="M620 868H589V899H620V868Z" fill="black"/>
<path d="M651 868H620V899H651V868Z" fill="black"/>
<path d="M682 868H651V899H682V868Z" fill="black"/>
<path d="M713 868H682V899H713V868Z" fill="black"/>
<path d="M837 868H806V899H837V868Z" fill="black"/>
<path d="M899 868H868V899H899V868Z" fill="black"/>
<path d="M961 868H930V899H961V868Z" fill="black"/>
<path d="M1054 868H1023V899H1054V868Z" fill="black"/>
<path d="M341 899H310V930H341V899Z" fill="black"/>
<path d="M372 899H341V930H372V899Z" fill="black"/>
<path d="M434 899H403V930H434V899Z" fill="black"/>
<path d="M465 899H434V930H465V899Z" fill="black"/>
<path d="M496 899H465V930H496V899Z" fill="black"/>
<path d="M527 899H496V930H527V899Z" fill="black"/>
<path d="M558 899H527V930H558V899Z" fill="black"/>
<path d="M620 899H589V930H620V899Z" fill="black"/>
<path d="M651 899H620V930H651V899Z" fill="black"/>
<path d="M775 899H744V930H775V899Z" fill="black"/>
<path d="M806 899H775V930H806V899Z" fill="black"/>
<path d="M837 899H806V930H837V899Z" fill="black"/>
<path d="M961 899H930V930H961V899Z" fill="black"/>
<path d="M992 899H961V930H992V899Z" fill="black"/>
<path d="M1054 899H1023V930H1054V899Z" fill="black"/>
<path d="M1085 899H1054V930H1085V899Z" fill="black"/>
<path d="M341 930H310V961H341V930Z" fill="black"/>
<path d="M372 930H341V961H372V930Z" fill="black"/>
<path d="M496 930H465V961H496V930Z" fill="black"/>
<path d="M589 930H558V961H589V930Z" fill="black"/>
<path d="M713 930H682V961H713V930Z" fill="black"/>
<path d="M775 930H744V961H775V930Z" fill="black"/>
<path d="M837 930H806V961H837V930Z" fill="black"/>
<path d="M868 930H837V961H868V930Z" fill="black"/>
<path d="M899 930H868V961H899V930Z" fill="black"/>
<path d="M930 930H899V961H930V930Z" fill="black"/>
<path d="M961 930H930V961H961V930Z" fill="black"/>
<path d="M992 930H961V961H992V930Z" fill="black"/>
<path d="M372 961H341V992H372V961Z" fill="black"/>
<path d="M465 961H434V992H465V961Z" fill="black"/>
<path d="M496 961H465V992H496V961Z" fill="black"/>
<path d="M651 961H620V992H651V961Z" fill="black"/>
<path d="M682 961H651V992H682V961Z" fill="black"/>
<path d="M744 961H713V992H744V961Z" fill="black"/>
<path d="M806 961H775V992H806V961Z" fill="black"/>
<path d="M899 961H868V992H899V961Z" fill="black"/>
<path d="M930 961H899V992H930V961Z" fill="black"/>
<path d="M961 961H930V992H961V961Z" fill="black"/>
<path d="M992 961H961V992H992V961Z" fill="black"/>
<path d="M1085 961H1054V992H1085V961Z" fill="black"/>
<path d="M403 992H372V1023H403V992Z" fill="black"/>
<path d="M465 992H434V1023H465V992Z" fill="black"/>
<path d="M496 992H465V1023H496V992Z" fill="black"/>
<path d="M620 992H589V1023H620V992Z" fill="black"/>
<path d="M651 992H620V1023H651V992Z" fill="black"/>
<path d="M806 992H775V1023H806V992Z" fill="black"/>
<path d="M868 992H837V1023H868V992Z" fill="black"/>
<path d="M899 992H868V1023H899V992Z" fill="black"/>
<path d="M961 992H930V1023H961V992Z" fill="black"/>
<path d="M992 992H961V1023H992V992Z" fill="black"/>
<path d="M1023 992H992V1023H1023V992Z" fill="black"/>
<path d="M403 1023H372V1054H403V1023Z" fill="black"/>
<path d="M434 1023H403V1054H434V1023Z" fill="black"/>
<path d="M465 1023H434V1054H465V1023Z" fill="black"/>
<path d="M558 1023H527V1054H558V1023Z" fill="black"/>
<path d="M682 1023H651V1054H682V1023Z" fill="black"/>
<path d="M713 1023H682V1054H713V1023Z" fill="black"/>
<path d="M744 1023H713V1054H744V1023Z" fill="black"/>
<path d="M806 1023H775V1054H806V1023Z" fill="black"/>
<path d="M837 1023H806V1054H837V1023Z" fill="black"/>
<path d="M868 1023H837V1054H868V1023Z" fill="black"/>
<path d="M930 1023H899V1054H930V1023Z" fill="black"/>
<path d="M961 1023H930V1054H961V1023Z" fill="black"/>
<path d="M1023 1023H992V1054H1023V1023Z" fill="black"/>
<path d="M465 1054H434V1085H465V1054Z" fill="black"/>
<path d="M496 1054H465V1085H496V1054Z" fill="black"/>
<path d="M589 1054H558V1085H589V1054Z" fill="black"/>
<path d="M682 1054H651V1085H682V1054Z" fill="black"/>
<path d="M744 1054H713V1085H744V1054Z" fill="black"/>
<path d="M775 1054H744V1085H775V1054Z" fill="black"/>
<path d="M837 1054H806V1085H837V1054Z" fill="black"/>
<path d="M899 1054H868V1085H899V1054Z" fill="black"/>
<path d="M930 1054H899V1085H930V1054Z" fill="black"/>
<path d="M1023 1054H992V1085H1023V1054Z" fill="black"/>
<path d="M1085 1054H1054V1085H1085V1054Z" fill="black"/>
<path d="M246.45 62H94.55H62V94.55V246.45V279H94.55H246.45H279V246.45V94.55V62H246.45ZM246.45 246.45H94.55V94.55H246.45V246.45Z" fill="black"/>
<path d="M1052.45 62H900.55H868V94.55V246.45V279H900.55H1052.45H1085V246.45V94.55V62H1052.45ZM1052.45 246.45H900.55V94.55H1052.45V246.45Z" fill="black"/>
<path d="M246.45 868H94.55H62V900.55V1052.45V1085H94.55H246.45H279V1052.45V900.55V868H246.45ZM246.45 1052.45H94.55V900.55H246.45V1052.45Z" fill="black"/>
<path d="M217 124H124V217H217V124Z" fill="black"/>
<path d="M1023 124H930V217H1023V124Z" fill="black"/>
<path d="M217 930H124V1023H217V930Z" fill="black"/>
<path d="M703.519 578.059C703.519 650.338 644.925 708.933 572.646 708.933C543.905 708.933 530.977 704.22 509.387 688.515L455.808 700.879C455.808 700.879 467.623 666.534 471.825 657.604C451.354 634.509 441.772 611.349 441.772 578.059C441.772 505.78 500.366 447.186 572.646 447.186C644.925 447.186 703.519 505.78 703.519 578.059Z" fill="#27D045"/>
<path fill-rule="evenodd" clip-rule="evenodd" d="M574.869 458.276C509.94 458.276 457.304 510.912 457.304 575.841C457.304 599.19 464.1 620.918 475.817 639.196L478.222 642.948L469.238 688.646L517.337 678.47L520.857 680.294C537.018 688.669 555.374 693.406 574.869 693.406C639.798 693.406 692.434 640.77 692.434 575.841C692.434 510.912 639.798 458.276 574.869 458.276ZM435.122 575.841C435.122 498.661 497.689 436.094 574.869 436.094C652.049 436.094 714.615 498.661 714.615 575.841C714.615 653.02 652.049 715.587 574.869 715.587C553.174 715.587 532.606 710.636 514.261 701.793L441 717.293L454.758 647.311C442.286 626.393 435.122 601.938 435.122 575.841Z" fill="white"/>
<path d="M519.268 512.102C498.315 526.64 498.079 553.684 510.395 574.211C521.195 590.28 534.018 604.891 548.548 617.688C561.258 627.745 575.689 635.412 591.138 640.314C608.699 647.325 628.857 644.114 640.825 628.779C643.162 622.968 644.568 616.392 643.488 610.146C643.044 607.041 611.102 592.401 607.996 593.287C604.89 594.175 602.229 599.942 598.679 604.822C595.13 609.702 593.799 611.921 590.25 611.921C586.701 611.921 571.174 605.71 556.534 592.401C548.171 585.149 541.636 576.03 537.457 565.781C537.457 565.781 540.119 562.676 543.668 557.797C546.43 554.77 548.41 551.115 549.435 547.149C549.435 544.931 537.013 513.432 533.908 512.102C529.052 511.419 524.124 511.419 519.268 512.102Z" fill="white"/>
</g>
<defs>
<clipPath id="clip0_2252_6456">
<rect width="1147" height="1147" fill="white"/>
</clipPath>
</defs>
</svg>
