<svg width="0" height="0" class="hidden">
  <symbol xmlns="http://www.w3.org/2000/svg" viewBox="0 0 17 17" id="phone">
    <path
      d="M5.677 16.269h5.758c1.247 0 2.078-.817 2.078-2.027V2.288c0-1.21-.831-2.02-2.078-2.02H5.677c-1.269 0-2.114.81-2.114 2.02v11.954c0 1.21.845 2.027 2.114 2.027Zm.247-1.502c-.575 0-.903-.313-.903-.867V2.63c0-.554.328-.867.903-.867h.3v.364c0 .321.21.533.524.533h3.587c.313 0 .524-.212.524-.533v-.364h.292c.576 0 .904.32.904.875V13.9c0 .554-.328.867-.904.867H5.924Zm.671-.576h3.893a.356.356 0 0 0 .371-.372c0-.218-.16-.364-.371-.364H6.595c-.211 0-.372.146-.372.364 0 .226.16.372.372.372Z">
    </path>
  </symbol>
  <symbol xmlns="http://www.w3.org/2000/svg" viewBox="0 0 17 17" id="post">
    <path
      d="M2.162 12.88 7.93 16.1c.4.225.808.225 1.209 0l5.767-3.22c.707-.393 1.056-.8 1.056-1.828V5.147c0-.772-.29-1.26-.946-1.631L9.896.645C9 .144 8.076.144 7.172.646l-5.12 2.87c-.648.371-.939.86-.939 1.631v5.907c0 1.026.35 1.434 1.049 1.827ZM11.95 5.57 6.568 2.56l1.194-.67c.524-.299 1.02-.306 1.551 0l4.588 2.585L11.95 5.57ZM8.534 7.477l-5.36-3 2.01-1.144 5.375 3.008-2.025 1.136Zm-5.571 4.275c-.4-.226-.54-.452-.54-.838V5.627L7.85 8.686v5.826l-4.886-2.76Zm11.15 0-4.894 2.76V8.686l5.425-3.06v5.288c0 .386-.138.612-.531.838Z">
    </path>
  </symbol>
  <symbol xmlns="http://www.w3.org/2000/svg" viewBox="0 0 17 17" id="street">
    <path
      d="M8.538 13.46c.313 0 .748-1.191.748-3.116V5.852a2.834 2.834 0 0 0 2.082-2.738A2.832 2.832 0 0 0 8.538.269a2.83 2.83 0 0 0-2.824 2.845c0 1.297.87 2.402 2.075 2.73v4.5c0 1.918.442 3.115.749 3.115ZM7.739 3.27a.996.996 0 0 1-.97-.976c0-.52.457-.963.97-.963.535 0 .97.442.97.963a.981.981 0 0 1-.97.976Zm.799 12.999c4.534 0 7.251-1.526 7.251-3.28 0-1.918-2.938-3.159-5.283-3.259v1.277c1.597.071 3.657.805 3.657 1.84 0 1.226-2.367 2.074-5.625 2.074-3.259 0-5.619-.841-5.619-2.075 0-1.034 2.06-1.768 3.65-1.84V9.73c-2.345.1-5.283 1.34-5.283 3.259 0 1.754 2.717 3.28 7.252 3.28Z">
    </path>
  </symbol>
  <symbol xmlns="http://www.w3.org/2000/svg" viewBox="0 0 17 17" id="company">
    <path
      d="M.538 4.026c0 .507.345.838.86.838H3.14v8.897c0 1.603.801 2.412 2.404 2.412h8.566c1.456 0 2.427-1 2.427-2.507v-2.088c0-.5-.346-.839-.853-.839h-.61V2.783c0-1.588-.824-2.419-2.398-2.419H2.574C1.368.364.538 1.203.538 2.482v1.544Zm1.397-.559v-.985c0-.449.264-.72.64-.72.382 0 .632.271.632.72v.985H1.935Zm2.669 10.228V2.578c0-.273-.022-.523-.066-.75h8.007c.713 0 1.066.375 1.066 1.051v7.86h-6.14c-.514 0-.86.338-.86.838v2.118c0 .61-.412 1.015-1 1.015-.588 0-1.007-.427-1.007-1.015ZM6.64 4.88h4.94c.265 0 .471-.206.471-.47a.457.457 0 0 0-.47-.456H6.64c-.28 0-.478.198-.478.455 0 .265.198.471.478.471Zm0 2.507h2.595c.272 0 .47-.198.47-.456a.46.46 0 0 0-.47-.47H6.641a.462.462 0 0 0-.478.47c0 .258.198.456.478.456Zm1.19 7.324c.162-.309.25-.67.25-1.096V12.21h6.993v1.382c0 .677-.419 1.118-1.029 1.118H7.832Z">
    </path>
  </symbol>
  <symbol xmlns="http://www.w3.org/2000/svg" viewBox="0 0 17 17" id="email">
    <path
      d="M2.88 14.524h11.486c1.374 0 2.172-.797 2.172-2.321V4.335c0-1.524-.805-2.322-2.343-2.322H2.709c-1.374 0-2.171.79-2.171 2.322v7.868c0 1.524.804 2.321 2.342 2.321Zm4.857-6.01L2.553 3.388c.1-.022.213-.036.334-.036h11.3c.129 0 .243.014.35.043L9.36 8.515c-.299.291-.548.42-.812.42-.263 0-.512-.136-.811-.42Zm-5.868-4.08 3.874 3.81-3.874 3.83v-7.64Zm9.485 3.81 3.852-3.788v7.604l-3.852-3.816Zm-8.467 4.934c-.128 0-.249-.014-.356-.035l4.08-4.045.385.385c.52.505 1.018.719 1.552.719.527 0 1.033-.214 1.546-.72l.391-.384 4.073 4.038a1.51 1.51 0 0 1-.37.042h-11.3Z">
    </path>
  </symbol>
  <symbol xmlns="http://www.w3.org/2000/svg" viewBox="0 0 17 17" id="id">
    <path
      d="M13.089 1.224H4.005C4.05.599 4.418.269 5.089.269h6.916c.67 0 1.038.33 1.084.955ZM14.448 3.235H2.636c.092-.66.423-1.037 1.167-1.037h9.47c.743 0 1.074.376 1.175 1.037ZM4.583 9.941h8.212a.694.694 0 0 0 .689-.688.694.694 0 0 0-.69-.69h-8.21a.694.694 0 0 0-.69.69c0 .376.313.688.69.688ZM4.583 12.21h4.428a.694.694 0 0 0 .688-.689.694.694 0 0 0-.688-.689H4.583a.694.694 0 0 0-.688.69c0 .376.312.688.688.688Z">
    </path>
    <path fill-rule="evenodd" clip-rule="evenodd"
      d="M13.75 16.269H3.316c-1.506 0-2.278-.781-2.278-2.26V6.634c0-1.488.78-2.26 2.278-2.26H13.75c1.497 0 2.287.781 2.287 2.26v7.375c0 1.488-.79 2.26-2.287 2.26Zm-11.334-2.38c0 .671.358.993.992.993h10.25c.643 0 .992-.322.992-.992V6.762c0-.67-.358-1-.992-1H3.408c-.643 0-.992.33-.992 1v7.128Z">
    </path>
  </symbol>
</svg>
