<svg width="0" height="0" class="hidden">
  <symbol xmlns="http://www.w3.org/2000/svg" viewBox="0 0 24 25" id="marketplace">
    <path
      d="M12 9.883c1.816 0 3.3-1.492 3.3-3.307 0-1.808-1.484-3.3-3.3-3.3-1.83 0-3.315 1.492-3.315 3.3A3.318 3.318 0 0 0 12 9.883Zm0-1.394a1.89 1.89 0 0 1-1.921-1.913c0-1.07.836-1.936 1.921-1.936 1.07 0 1.914.866 1.914 1.936A1.893 1.893 0 0 1 12 8.489Zm-5.477 7.06c1.808 0 3.3-1.492 3.3-3.308 0-1.808-1.492-3.3-3.3-3.3-1.83 0-3.314 1.492-3.314 3.3a3.318 3.318 0 0 0 3.314 3.307Zm10.969 0c1.808 0 3.3-1.492 3.3-3.308 0-1.808-1.492-3.3-3.3-3.3-1.83 0-3.315 1.492-3.315 3.3a3.318 3.318 0 0 0 3.315 3.307ZM6.516 14.154a1.894 1.894 0 0 1-1.921-1.914c0-1.07.843-1.936 1.92-1.936 1.078 0 1.922.866 1.922 1.936a1.894 1.894 0 0 1-1.921 1.914Zm10.968 0a1.894 1.894 0 0 1-1.92-1.914c0-1.07.843-1.936 1.92-1.936 1.078 0 1.921.866 1.921 1.936a1.894 1.894 0 0 1-1.92 1.914ZM12 21.214c1.816 0 3.3-1.5 3.3-3.308 0-1.808-1.484-3.3-3.3-3.3-1.83 0-3.315 1.492-3.315 3.3A3.323 3.323 0 0 0 12 21.214Zm0-1.394a1.89 1.89 0 0 1-1.921-1.914c0-1.07.836-1.936 1.921-1.936 1.07 0 1.914.867 1.914 1.936A1.893 1.893 0 0 1 12 19.82Z">
    </path>
  </symbol>
  <symbol xmlns="http://www.w3.org/2000/svg" viewBox="0 0 24 24" id="search">
    <path
      d="M10.742 16.502c1.198 0 2.32-.362 3.254-.98l3.3 3.307c.219.212.497.317.799.317.625 0 1.084-.49 1.084-1.108a1.08 1.08 0 0 0-.308-.775l-3.277-3.293a5.88 5.88 0 0 0 1.077-3.397c0-3.262-2.667-5.929-5.93-5.929-3.254 0-5.928 2.667-5.928 5.929 0 3.262 2.667 5.929 5.929 5.929Zm0-1.582a4.363 4.363 0 0 1-4.347-4.347 4.363 4.363 0 0 1 4.347-4.347 4.363 4.363 0 0 1 4.347 4.347 4.363 4.363 0 0 1-4.347 4.347Z">
    </path>
  </symbol>
  <!-- <symbol xmlns="http://www.w3.org/2000/svg" viewBox="0 0 24 24" id="checkmark">
    <path
      d="M11.9924 19.4933C16.2639 19.4933 19.7896 15.9676 19.7896 11.7037C19.7896 7.43973 16.2564 3.91406 11.9849 3.91406C7.72096 3.91406 4.20282 7.43973 4.20282 11.7037C4.20282 15.9676 7.72849 19.4933 11.9924 19.4933ZM11.9924 17.9414C8.53457 17.9414 5.76978 15.1616 5.76978 11.7037C5.76978 8.24581 8.53457 5.47349 11.9849 5.47349C15.4428 5.47349 18.2226 8.24581 18.2302 11.7037C18.2377 15.1616 15.4503 17.9414 11.9924 17.9414Z">
    </path>
    <path
      d="M11.8267 14.6869C11.6685 14.9355 11.435 15.0711 11.1563 15.0711C10.8775 15.0711 10.659 14.9506 10.4556 14.6945L8.67774 12.5324C8.54967 12.3666 8.48187 12.2009 8.48187 12.0201C8.48187 11.6434 8.77568 11.3421 9.15235 11.3421C9.37082 11.3421 9.55163 11.4249 9.73243 11.6585L11.1337 13.4289L14.132 8.64509C14.2902 8.38895 14.4936 8.26088 14.7196 8.26088C15.0812 8.26088 15.4127 8.50949 15.4127 8.88616C15.4127 9.05943 15.3298 9.24023 15.2243 9.39844L11.8267 14.6869Z">
    </path>
  </symbol> -->
  <symbol xmlns="http://www.w3.org/2000/svg" viewBox="0 0 24 24" id="external-link">
    <path
      d="M20.37 7.592c.376 0 .625-.279.625-.686V3.403c0-.527-.294-.76-.768-.76H16.7c-.407 0-.678.24-.678.617 0 .384.271.625.685.625h1.274l1.017-.12-1.108 1.017-4.637 4.637a.693.693 0 0 0-.21.482c0 .407.278.67.662.67.211 0 .377-.075.513-.21l4.629-4.63 1.01-1.092-.114 1.077v1.198c0 .414.249.678.626.678Z">
    </path>
    <path
      d="M7.435 18.755h9.123c1.634 0 2.478-.844 2.478-2.456v-4.584h-1.499v4.448c0 .731-.392 1.093-1.077 1.093H7.533c-.693 0-1.078-.362-1.078-1.093V7.266c0-.73.385-1.092 1.078-1.092h4.463v-1.5H7.435c-1.628 0-2.479.837-2.479 2.457v9.168c0 1.612.851 2.456 2.479 2.456Z">
    </path>
  </symbol>
  <symbol xmlns="http://www.w3.org/2000/svg" viewBox="0 0 24 24" id="link">
    <path
      d="M11.6459 14.8301L12.7986 13.6624C11.9096 13.5871 11.2693 13.2932 10.8097 12.8337C9.53655 11.5605 9.53655 9.76004 10.8022 8.50195L13.3033 5.9933C14.5765 4.72768 16.3694 4.72015 17.6426 5.9933C18.9233 7.274 18.9082 9.06696 17.6501 10.3326L16.3694 11.6057C16.6105 12.1632 16.6934 12.8412 16.5578 13.4289L18.7123 11.2818C20.5656 9.43611 20.5731 6.79939 18.7048 4.93108C16.829 3.05525 14.2073 3.07031 12.3541 4.92355L9.73242 7.5452C7.87919 9.39844 7.87165 12.0276 9.73996 13.8959C10.1769 14.3404 10.7796 14.6719 11.6459 14.8301ZM12.3465 8.46429L11.1939 9.63198C12.0829 9.71484 12.7232 10.0011 13.1828 10.4607C14.4635 11.7338 14.4559 13.5343 13.1903 14.7999L10.6892 17.3011C9.41602 18.5742 7.62305 18.5742 6.35742 17.3011C5.07673 16.0204 5.08427 14.2349 6.34989 12.9693L7.62305 11.6886C7.38198 11.1387 7.30664 10.4607 7.43471 9.86551L5.28014 12.0201C3.4269 13.8658 3.41937 16.495 5.28767 18.3633C7.16351 20.2391 9.78516 20.2241 11.6384 18.3783L14.26 15.7492C16.1133 13.8959 16.1208 11.2667 14.2525 9.39844C13.8156 8.9615 13.2204 8.63002 12.3465 8.46429Z">
    </path>
  </symbol>
  <symbol xmlns="http://www.w3.org/2000/svg" viewBox="0 0 24 24" id="email">
    <path
      d="M6.01 18.52h12.152c1.454 0 2.298-.843 2.298-2.455V7.74c0-1.612-.851-2.456-2.478-2.456H5.83c-1.454 0-2.298.837-2.298 2.456v8.325c0 1.612.852 2.456 2.479 2.456Zm5.139-6.358L5.664 6.738c.106-.022.226-.037.354-.037h11.956c.136 0 .256.015.37.045l-5.478 5.416c-.316.31-.58.445-.858.445-.28 0-.543-.143-.86-.445ZM4.94 7.846l4.098 4.03-4.098 4.053V7.846Zm10.035 4.03 4.075-4.008v8.046l-4.075-4.038Zm-8.958 5.22c-.135 0-.263-.014-.376-.037l4.316-4.279.407.407c.55.535 1.078.76 1.643.76.557 0 1.092-.225 1.634-.76l.415-.407 4.309 4.272c-.12.03-.249.045-.392.045H6.018Z">
    </path>
  </symbol>

  <symbol xmlns="http://www.w3.org/2000/svg" viewBox="0 0 25 24" id="plus">
    <path
      d="M7.25872 12.5625H11.8541V17.1579C11.8541 17.625 12.2384 18.0167 12.713 18.0167C13.1876 18.0167 13.5718 17.625 13.5718 17.1579V12.5625H18.1672C18.6343 12.5625 19.026 12.1783 19.026 11.7037C19.026 11.2291 18.6343 10.8449 18.1672 10.8449H13.5718V6.24944C13.5718 5.78237 13.1876 5.39062 12.713 5.39062C12.2384 5.39062 11.8541 5.78237 11.8541 6.24944V10.8449H7.25872C6.79164 10.8449 6.3999 11.2291 6.3999 11.7037C6.3999 12.1783 6.79164 12.5625 7.25872 12.5625Z">
    </path>
  </symbol>
  <symbol xmlns="http://www.w3.org/2000/svg" viewBox="0 0 25 24" id="minus">
    <path
      d="M7.25851 12.5699H18.167C18.6265 12.5699 19.0183 12.1857 19.0183 11.7111C19.0183 11.244 18.6265 10.8523 18.167 10.8523H7.25851C6.81403 10.8523 6.40723 11.244 6.40723 11.7111C6.40723 12.1857 6.81403 12.5699 7.25851 12.5699Z">
    </path>
  </symbol>
  <symbol xmlns="http://www.w3.org/2000/svg" viewBox="0 0 24 24" id="whatsapp">
    <path
      d="M11.992 19.493c4.272 0 7.798-3.525 7.798-7.79 0-4.263-3.534-7.789-7.805-7.789-4.264 0-7.782 3.526-7.782 7.79 0 1.554.468 3.01 1.27 4.233l-1.09 4.54L9 18.885c.924.39 1.935.607 2.992.607Zm0-1.552a6.224 6.224 0 0 1-2.69-.605l-3.247 1.332.935-3.24a6.237 6.237 0 0 1-1.22-3.724 6.2 6.2 0 0 1 6.215-6.23 6.226 6.226 0 0 1 6.245 6.23 6.217 6.217 0 0 1-6.238 6.237Z">
    </path>
    <path
      d="M15.956 13.85c.41.41.303.932-.101 1.337l-.054.053c-1.38 1.38-3.867.287-5.662-1.508-1.79-1.79-2.882-4.277-1.502-5.657l.053-.053c.405-.405.927-.512 1.337-.101.293.293.629.65 1.039 1.422.24.463.218.783-.155 1.166l-.293.304c-.064.064-.069.133-.016.24.101.208.432.687.98 1.236.554.554 1.034.884 1.242.985.106.053.17.043.234-.021l.304-.293c.389-.368.708-.389 1.172-.15.767.406 1.129.746 1.422 1.04Z">
    </path>
  </symbol>
  <symbol xmlns="http://www.w3.org/2000/svg" viewBox="0 0 24 24" id="instagram">
    <path
      d="M11.9326 4.5C5.03974 4.5 4.5 5.03974 4.5 11.9326V12.0674C4.5 18.9603 5.03974 19.5 11.9326 19.5H12.0674C18.9603 19.5 19.5 18.9603 19.5 12.0674V12C19.5 5.0445 18.9555 4.5 12 4.5H11.9326ZM10.5 6H13.5C17.6734 6 18 6.32663 18 10.5V13.5C18 17.6734 17.6734 18 13.5 18H10.5C6.32663 18 6 17.6734 6 13.5V10.5C6 6.32663 6.32663 6 10.5 6ZM15.7478 7.5C15.3334 7.50113 14.9989 7.83782 15 8.2522C15.0011 8.66657 15.3378 9.00113 15.7522 9C16.1666 8.99887 16.5011 8.66218 16.5 8.2478C16.4989 7.83343 16.1622 7.49887 15.7478 7.5ZM11.9912 8.25C9.92046 8.25488 8.24512 9.93804 8.25 12.0088C8.25488 14.0795 9.93804 15.7549 12.0088 15.75C14.0795 15.7451 15.7549 14.062 15.75 11.9912C15.7451 9.92046 14.062 8.24512 11.9912 8.25ZM11.9949 9.75C13.2372 9.747 14.247 10.7525 14.25 11.9949C14.2526 13.2372 13.2475 14.247 12.0051 14.25C10.7628 14.253 9.753 13.2479 9.75 12.0051C9.747 10.7628 10.7525 9.753 11.9949 9.75Z">
    </path>
  </symbol>
  <symbol xmlns="http://www.w3.org/2000/svg" viewBox="0 0 24 24" id="facebook">
    <path
      d="M12.649 19.5205V12.1529H15.0889L15.4733 9.70423H12.649C12.649 9.70423 12.6448 8.2699 12.649 7.91242C12.6572 7.21263 13.3119 6.85869 13.8745 6.86375C14.437 6.86927 15.6021 6.86555 15.6021 6.86555V4.60825C15.6021 4.60825 14.5935 4.49121 13.5354 4.48155C12.6462 4.47327 11.6644 4.68859 10.8721 5.40172C10.0659 6.12681 9.93872 7.20708 9.92327 8.52706C9.91863 8.90847 9.92327 9.70333 9.92327 9.70333H7.53564V12.152H9.92327V19.5205H12.649Z">
    </path>
  </symbol>
  <symbol xmlns="http://www.w3.org/2000/svg" viewBox="0 0 24 24" id="telegram">
    <path
      d="M18.7619 5.73521C19.4673 5.73521 19.6529 6.26873 19.4443 7.52139C19.2055 8.95385 18.5177 13.6965 17.9692 16.6488C17.7593 17.7785 17.3809 18.2656 16.8302 18.2656C16.5275 18.2656 16.173 18.1185 15.7657 17.8496C15.2138 17.485 12.4275 15.6424 11.8225 15.2096C11.2706 14.8154 10.5092 14.3408 11.4642 13.4067C11.8041 13.0739 14.0314 10.947 15.7666 9.29168C15.9518 9.11482 15.7967 8.84514 15.591 8.84514C15.5441 8.84514 15.4944 8.85935 15.4459 8.89155C13.1069 10.4427 9.86365 12.5956 9.45097 12.8762C9.03829 13.1563 8.63607 13.3361 8.10005 13.3361C7.82618 13.3361 7.5172 13.2893 7.15386 13.1847C6.34147 12.9514 5.54831 12.6734 5.23932 12.5672C4.04979 12.1591 4.33202 11.6302 5.48726 11.1218C10.1191 9.0843 16.1128 6.59987 16.9402 6.25618C17.7463 5.92128 18.3451 5.73521 18.7619 5.73521ZM18.7619 4.48088C18.1899 4.48088 17.5013 4.66526 16.4598 5.09717L16.3348 5.14902C11.8881 6.99541 7.85629 8.70883 4.98218 9.9732C4.53313 10.171 3.16716 10.7718 3.22026 12.0286C3.24283 12.5709 3.54137 13.3102 4.8325 13.7529L4.92783 13.7856C5.28824 13.9097 6.03875 14.1685 6.80808 14.3897C7.27637 14.5244 7.6995 14.5896 8.10047 14.5896C8.79621 14.5896 9.33515 14.391 9.75661 14.1598C9.75452 14.23 9.75619 14.3007 9.76163 14.3718C9.83772 15.3384 10.5853 15.8686 11.0319 16.1855L11.0942 16.2298C11.7535 16.7015 14.7376 18.6729 15.0754 18.8957C15.7114 19.3155 16.2854 19.5191 16.8311 19.5191C17.689 19.5191 18.7975 19.0609 19.203 16.8775C19.5881 14.8066 20.033 11.9137 20.3579 9.80136C20.4963 8.89991 20.61 8.16069 20.6823 7.7271C20.8282 6.85158 20.8951 5.85981 20.2859 5.14108C20.0301 4.84004 19.5584 4.48088 18.7619 4.48088Z">
    </path>
  </symbol>
  <symbol xmlns="http://www.w3.org/2000/svg" viewBox="0 0 24 24" id="tik-tok">
    <path
      d="M12.5102 4.51321V14.7059C12.5102 16.1069 11.292 16.8307 10.4178 16.8307C9.75898 16.8307 8.26052 16.3142 8.26052 14.6891C8.26052 12.9829 9.65853 12.5474 10.4333 12.5474C10.8846 12.5474 11.0617 12.6445 11.0617 12.6445V9.92491C11.0617 9.92491 10.7236 9.87454 10.3374 9.87454C7.56295 9.87454 5.58765 12.1203 5.58765 14.6891C5.58765 16.8594 7.2849 19.4868 10.3854 19.4868C13.6879 19.4868 15.1999 16.7326 15.1999 14.7047V9.64911C15.1999 9.64911 16.6718 10.6792 18.645 10.6792V8.10342C16.3814 7.94195 15.1713 6.42139 15.0872 4.51321H12.5102Z">
    </path>
  </symbol>
  <symbol xmlns="http://www.w3.org/2000/svg" viewBox="0 0 24 24" id="send">
    <path
      d="M5.008 18.73c.415.415 1.039.367 1.747.053l12.71-5.678c.33-.15.591-.304.773-.485.378-.378.378-.858-.006-1.241-.175-.176-.436-.341-.761-.485l-12.775-5.7c-.633-.282-1.267-.34-1.683.075-.511.511-.325 1.081.043 1.758l2.717 4.975-2.685 4.922c-.384.703-.592 1.295-.08 1.806Zm4.054-7.4L6.766 7.01c-.059-.1-.054-.149-.022-.18.038-.038.091-.048.182 0l8.741 3.904c.629.277 1.284.506 1.992.767-.692-.074-1.54-.165-2.178-.165l-6.42-.005Zm-2.318 5.855c-.037-.037-.032-.096.022-.192l2.296-4.32 6.419-.005c.623-.005 1.502-.096 2.2-.176-.714.266-1.38.495-2.014.778l-8.741 3.904c-.096.043-.144.048-.182.011Z">
    </path>
  </symbol>
  <symbol xmlns="http://www.w3.org/2000/svg" viewBox="0 0 24 24" id="arrow-right">
    <path
      d="M19.127 11.689a.864.864 0 0 0-.271-.618l-4.973-4.965a.836.836 0 0 0-.595-.256c-.474 0-.82.34-.82.799a.8.8 0 0 0 .248.595L14.41 8.96l2.184 1.997-1.755-.106H5.71c-.498 0-.844.347-.844.837 0 .497.346.843.844.843h9.13l1.748-.105-2.177 1.996-1.695 1.718a.8.8 0 0 0-.249.595c0 .46.347.799.821.799.219 0 .422-.083.618-.272l4.95-4.95a.868.868 0 0 0 .27-.624Z">
    </path>
  </symbol>
  <symbol xmlns="http://www.w3.org/2000/svg" viewBox="0 0 24 24" id="arrow-left">
    <path
      d="M4.866 11.696c0 .226.098.452.271.618l4.972 4.965c.18.173.377.256.595.256.475 0 .821-.34.821-.799a.8.8 0 0 0-.248-.595l-1.695-1.718-2.185-1.996 1.755.105h9.13c.498 0 .845-.346.845-.836 0-.497-.347-.844-.844-.844h-9.13l-1.748.106L9.582 8.96l1.695-1.717a.8.8 0 0 0 .248-.595c0-.46-.346-.799-.82-.799-.22 0-.423.083-.619.271l-4.949 4.95a.867.867 0 0 0-.271.625Z">
    </path>
  </symbol>
  <symbol xmlns="http://www.w3.org/2000/svg" viewBox="0 0 24 24" id="chevron-left">
    <path
      d="M7.156 11.704c0 .263.098.49.309.685l5.86 5.74a.858.858 0 0 0 .626.257.89.89 0 0 0 .897-.897.92.92 0 0 0-.272-.64l-5.28-5.145 5.28-5.146a.934.934 0 0 0 .272-.64.89.89 0 0 0-.897-.897c-.248 0-.46.09-.625.257L7.465 11.01a.924.924 0 0 0-.309.693Z">
    </path>
  </symbol>
  <symbol xmlns="http://www.w3.org/2000/svg" viewBox="0 0 24 24" id="chevron-right">
    <path
      d="M16.844 11.704a.98.98 0 0 0-.309-.693l-5.86-5.733a.87.87 0 0 0-.626-.257.884.884 0 0 0-.897.897c0 .241.098.467.272.64l5.273 5.146-5.273 5.145a.888.888 0 0 0-.272.64c0 .505.392.897.897.897.24 0 .452-.09.625-.256l5.861-5.74a.897.897 0 0 0 .309-.686Z">
    </path>
  </symbol>
  <symbol xmlns="http://www.w3.org/2000/svg" viewBox="0 0 24 24" id="chevron-down">
    <path
      d="M12.0001 15.8471C12.2637 15.8396 12.5048 15.7416 12.7007 15.5307L18.4261 9.66964C18.5919 9.50391 18.6823 9.29297 18.6823 9.04436C18.6823 8.54716 18.2905 8.14788 17.7933 8.14788C17.5522 8.14788 17.3187 8.24582 17.1454 8.41909L12.0076 13.7001L6.8547 8.41909C6.68143 8.25335 6.45543 8.14788 6.20682 8.14788C5.70961 8.14788 5.31787 8.54716 5.31787 9.04436C5.31787 9.29297 5.40827 9.50391 5.57401 9.66964L11.307 15.5307C11.5104 15.7416 11.7364 15.8471 12.0001 15.8471Z">
    </path>
  </symbol>

  <symbol xmlns="http://www.w3.org/2000/svg" viewBox="0 0 24 24" id="chevron-up">
    <path
      d="M5.57352 14.2676L11.3065 8.40653C11.5024 8.19559 11.7359 8.09766 11.9996 8.09766C12.2633 8.09766 12.5043 8.20313 12.7002 8.40653L18.4256 14.2676C18.5914 14.4333 18.6818 14.6443 18.6818 14.8929C18.6818 15.3976 18.29 15.7893 17.7928 15.7893C17.5518 15.7893 17.3182 15.6989 17.1449 15.5181L12.0071 10.2372L6.85421 15.5181C6.68848 15.6914 6.45494 15.7893 6.20633 15.7893C5.70912 15.7893 5.31738 15.3976 5.31738 14.8929C5.31738 14.6518 5.40778 14.4333 5.57352 14.2676Z">
    </path>
  </symbol>

  <symbol fill="none" xmlns="http://www.w3.org/2000/svg" viewBox="0 0 24 24" id="menu">
    <path fill-rule="evenodd" clip-rule="evenodd"
      d="M2.25 7.188a.75.75 0 0 1 .75-.75h14.774a.75.75 0 0 1 0 1.5H3a.75.75 0 0 1-.75-.75ZM2.25 12.188a.75.75 0 0 1 .75-.75h18a.75.75 0 0 1 0 1.5H3a.75.75 0 0 1-.75-.75ZM2.25 17.188a.75.75 0 0 1 .75-.75h11.276a.75.75 0 0 1 0 1.5H3a.75.75 0 0 1-.75-.75Z"
      fill="#282829"></path>
  </symbol>
  <symbol xmlns="http://www.w3.org/2000/svg" viewBox="0 0 24 24" id="mob-menu">
    <path d="M2.992 17.386h11.53m-11.53-5.343H20.77M2.992 6.835h14.672" stroke="#000" stroke-width="1.75"
      stroke-linecap="round"></path>
  </symbol>
  <symbol xmlns="http://www.w3.org/2000/svg" viewBox="0 0 24 24" id="add">
    <path
      d="M6.546 12.563h4.595v4.595c0 .467.384.859.859.859a.863.863 0 0 0 .859-.86v-4.595h4.595a.863.863 0 0 0 .86-.858.863.863 0 0 0-.86-.86H12.86V6.25A.863.863 0 0 0 12 5.391a.863.863 0 0 0-.859.858v4.596H6.546a.863.863 0 0 0-.86.859c0 .474.393.858.86.858Z">
    </path>
  </symbol>
  <!-- <symbol xmlns="http://www.w3.org/2000/svg" viewBox="0 0 24 24" id="close">
    <path
      d="M6.162 16.517a.871.871 0 0 0 .007 1.213.878.878 0 0 0 1.213.007l4.61-4.618 4.618 4.618a.871.871 0 0 0 1.213-.007c.324-.34.332-.89 0-1.213l-4.61-4.618 4.61-4.61a.864.864 0 0 0 0-1.214c-.339-.324-.889-.331-1.213-.007l-4.617 4.618-4.611-4.618c-.316-.317-.889-.332-1.213.007a.878.878 0 0 0-.007 1.213l4.618 4.61-4.618 4.619Z">
    </path>
  </symbol> -->
  <symbol xmlns="http://www.w3.org/2000/svg" viewBox="0 0 24 24" id="checkmark">
    <path fill-rule="evenodd" clip-rule="evenodd"
      d="M19.0355 5.06521C19.4426 5.32557 19.5616 5.86667 19.3012 6.27378L11.8399 17.9407C11.689 18.1767 11.4342 18.3261 11.1546 18.3428C10.875 18.3594 10.6044 18.2411 10.4266 18.0247L6.05779 12.7064C5.75104 12.333 5.80509 11.7816 6.1785 11.4749C6.55191 11.1681 7.10329 11.2222 7.41004 11.5956L11.0144 15.9833L17.8269 5.33093C18.0873 4.92382 18.6284 4.80485 19.0355 5.06521Z">
    </path>
  </symbol>
  <symbol xmlns="http://www.w3.org/2000/svg" viewBox="0 0 24 24" id="checkmark-circle">
    <path
      d="M12.7051 19.4933C16.9766 19.4933 20.5023 15.9676 20.5023 11.7037C20.5023 7.43973 16.9691 3.91406 12.6976 3.91406C8.43366 3.91406 4.91553 7.43973 4.91553 11.7037C4.91553 15.9676 8.4412 19.4933 12.7051 19.4933ZM12.7051 17.9414C9.24728 17.9414 6.48249 15.1616 6.48249 11.7037C6.48249 8.24581 9.24728 5.47349 12.6976 5.47349C16.1555 5.47349 18.9353 8.24581 18.9429 11.7037C18.9504 15.1616 16.163 17.9414 12.7051 17.9414Z">
    </path>
    <path
      d="M12.5397 14.687C12.3815 14.9357 12.1479 15.0713 11.8692 15.0713C11.5905 15.0713 11.372 14.9507 11.1686 14.6946L9.39069 12.5325C9.26263 12.3667 9.19482 12.201 9.19482 12.0202C9.19482 11.6435 9.48863 11.3422 9.8653 11.3422C10.0838 11.3422 10.2646 11.425 10.4454 11.6586L11.8466 13.429L14.8449 8.64519C15.0031 8.38906 15.2065 8.26099 15.4325 8.26099C15.7942 8.26099 16.1256 8.50959 16.1256 8.88627C16.1256 9.05954 16.0428 9.24034 15.9373 9.39854L12.5397 14.687Z">
    </path>
  </symbol>
  <symbol xmlns="http://www.w3.org/2000/svg" viewBox="0 0 24 24" id="close">
    <path
      d="M6.87435 16.3291C6.55794 16.6456 6.54287 17.2106 6.88188 17.542C7.21335 17.8735 7.77836 17.866 8.09477 17.5496L12.7053 12.9315L17.3233 17.5496C17.6472 17.8735 18.2047 17.8735 18.5362 17.542C18.8601 17.203 18.8676 16.6531 18.5362 16.3291L13.9257 11.7111L18.5362 7.10063C18.8676 6.77669 18.8676 6.21921 18.5362 5.88774C18.1972 5.5638 17.6472 5.55627 17.3233 5.8802L12.7053 10.4982L8.09477 5.8802C7.77836 5.5638 7.20582 5.54873 6.88188 5.88774C6.55041 6.21921 6.55794 6.78422 6.87435 7.10063L11.4924 11.7111L6.87435 16.3291Z">
    </path>
  </symbol>
  <symbol xmlns="http://www.w3.org/2000/svg" viewBox="0 0 24 24" id="close-circle">
    <path
      d="M12.7051 19.4933C16.9766 19.4933 20.5023 15.9676 20.5023 11.7037C20.5023 7.43973 16.9691 3.91406 12.6976 3.91406C8.43366 3.91406 4.91553 7.43973 4.91553 11.7037C4.91553 15.9676 8.4412 19.4933 12.7051 19.4933ZM12.7051 17.9414C9.24728 17.9414 6.48249 15.1616 6.48249 11.7037C6.48249 8.24581 9.24728 5.47349 12.6976 5.47349C16.1555 5.47349 18.9353 8.24581 18.9429 11.7037C18.9504 15.1616 16.163 17.9414 12.7051 17.9414ZM10.2342 14.8677C10.43 14.8677 10.6033 14.7999 10.7314 14.6643L12.7051 12.6906L14.6789 14.6643C14.807 14.7924 14.9727 14.8677 15.1761 14.8677C15.5603 14.8677 15.8617 14.5664 15.8617 14.1822C15.8617 13.9939 15.7863 13.8281 15.6583 13.7001L13.677 11.7188L15.6583 9.72991C15.8014 9.58677 15.8692 9.4361 15.8692 9.2553C15.8692 8.87109 15.5679 8.56975 15.1837 8.56975C14.9953 8.56975 14.8371 8.63002 14.694 8.77316L12.7051 10.7545L10.7163 8.78069C10.5882 8.64509 10.43 8.57729 10.2342 8.57729C9.84996 8.57729 9.54862 8.87109 9.54862 9.2553C9.54862 9.44364 9.62395 9.60938 9.75956 9.73744L11.7333 11.7188L9.75956 13.7076C9.62395 13.8281 9.54862 14.0014 9.54862 14.1822C9.54862 14.5664 9.84996 14.8677 10.2342 14.8677Z">
    </path>
  </symbol>
  <symbol xmlns="http://www.w3.org/2000/svg" viewBox="0 0 24 24" id="warning-circle">
    <path
      d="M12.7051 19.4933C16.9766 19.4933 20.5023 15.9676 20.5023 11.7037C20.5023 7.43973 16.9691 3.91406 12.6976 3.91406C8.43366 3.91406 4.91553 7.43973 4.91553 11.7037C4.91553 15.9676 8.4412 19.4933 12.7051 19.4933ZM12.7051 17.9414C9.24728 17.9414 6.48249 15.1616 6.48249 11.7037C6.48249 8.24581 9.24728 5.47349 12.6976 5.47349C16.1555 5.47349 18.9353 8.24581 18.9429 11.7037C18.9504 15.1616 16.163 17.9414 12.7051 17.9414Z">
    </path>
    <path
      d="M13.3792 12.0578C13.3717 12.5022 13.1306 12.7282 12.7163 12.7282C12.2944 12.7282 12.0533 12.4947 12.0383 12.0653L11.9328 8.42662C11.9177 7.98968 12.2417 7.67327 12.7088 7.67327C13.1758 7.67327 13.5073 7.99721 13.4922 8.43415L13.3792 12.0578Z">
    </path>
    <path
      d="M13.6052 14.4007C13.6052 14.8828 13.206 15.2294 12.7163 15.2294C12.2341 15.2294 11.8273 14.8753 11.8273 14.4007C11.8273 13.9261 12.2266 13.572 12.7163 13.572C13.2135 13.572 13.6052 13.9261 13.6052 14.4007Z">
    </path>
  </symbol>
  <!-- warning and warning-circle is same -->
  <symbol xmlns="http://www.w3.org/2000/svg" viewBox="0 0 24 24" id="warning">
    <path
      d="M11.9925 19.4933C16.264 19.4933 19.7896 15.9676 19.7896 11.7037C19.7896 7.43973 16.2564 3.91406 11.9849 3.91406C7.72099 3.91406 4.20285 7.43973 4.20285 11.7037C4.20285 15.9676 7.72852 19.4933 11.9925 19.4933ZM11.9925 17.9414C8.5346 17.9414 5.76981 15.1616 5.76981 11.7037C5.76981 8.24581 8.5346 5.47349 11.9849 5.47349C15.4428 5.47349 18.2227 8.24581 18.2302 11.7037C18.2377 15.1616 15.4503 17.9414 11.9925 17.9414Z">
    </path>
    <path
      d="M12.6666 12.0578C12.659 12.5022 12.418 12.7282 12.0036 12.7282C11.5817 12.7282 11.3407 12.4947 11.3256 12.0653L11.2201 8.42662C11.2051 7.98968 11.529 7.67327 11.9961 7.67327C12.4632 7.67327 12.7946 7.99721 12.7796 8.43415L12.6666 12.0578Z">
    </path>
    <path
      d="M12.8926 14.4007C12.8926 14.8828 12.4933 15.2294 12.0036 15.2294C11.5215 15.2294 11.1147 14.8753 11.1147 14.4007C11.1147 13.9261 11.5139 13.572 12.0036 13.572C12.5008 13.572 12.8926 13.9261 12.8926 14.4007Z">
    </path>
  </symbol>
  <symbol xmlns="http://www.w3.org/2000/svg" viewBox="0 0 24 24" id="connected">
    <path
      d="M5.54382 14.4534H6.09377C6.0335 13.9788 5.99583 13.4665 6.07117 13.022H5.63423C3.84126 13.022 2.5681 11.7639 2.5681 9.95591C2.5681 8.16294 3.84126 6.88979 5.63423 6.88979H12.2863C14.0793 6.88979 15.3524 8.16294 15.3524 9.95591C15.3524 11.7639 14.0793 13.022 12.2863 13.022H9.98104C9.61944 13.2631 9.64957 14.1671 10.1166 14.4534H12.3767C14.9908 14.4534 16.8591 12.6077 16.8591 9.95591C16.8591 7.31166 14.9908 5.46596 12.3767 5.46596H5.54382C2.9297 5.46596 1.0614 7.31166 1.0614 9.95591C1.0614 12.6077 2.9297 14.4534 5.54382 14.4534ZM11.6158 18.0167H18.4411C21.0628 18.0167 22.9311 16.171 22.9311 13.5268C22.9311 10.875 21.0628 9.02929 18.4411 9.02929H17.8987C17.959 9.5039 17.9967 10.0162 17.9213 10.4607H18.3583C20.1512 10.4607 21.4244 11.7187 21.4244 13.5268C21.4244 15.3198 20.1512 16.5929 18.3583 16.5929H11.7062C9.91324 16.5929 8.64008 15.3198 8.64008 13.5268C8.64008 11.7187 9.91324 10.4607 11.7062 10.4607H14.0115C14.3731 10.2196 14.3429 9.31557 13.8759 9.02929H11.6158C8.99416 9.02929 7.13339 10.875 7.13339 13.5268C7.13339 16.171 8.99416 18.0167 11.6158 18.0167Z">
    </path>
  </symbol>
  <symbol xmlns="http://www.w3.org/2000/svg" viewBox="0 0 24 24" id="updating">
    <path
      d="M20.8067 10.7997H19.752C19.3075 6.98019 15.9928 3.91406 12 3.91406C9.79271 3.91406 7.7888 4.87835 6.40264 6.38504C6.0335 6.74665 6.04857 7.22879 6.3499 7.50753C6.65878 7.79381 7.10325 7.79381 7.47993 7.44727C8.60242 6.23438 10.2146 5.47349 12 5.47349C15.1791 5.47349 17.7481 7.80134 18.1775 10.7997H17.0248C16.4448 10.7997 16.2866 11.2291 16.6256 11.6961L18.4261 14.2425C18.7048 14.6191 19.1267 14.6267 19.3979 14.2425L21.2059 11.7037C21.5449 11.2291 21.3943 10.7997 20.8067 10.7997ZM3.19338 12.6152H4.2556C4.70007 16.4347 8.0148 19.5008 12 19.5008C14.2224 19.5008 16.2263 18.529 17.6125 17.0223C17.9741 16.6607 17.959 16.1786 17.6577 15.8998C17.3488 15.6136 16.9118 15.6136 16.5276 15.9676C15.4202 17.1805 13.8081 17.9414 12 17.9414C8.82842 17.9414 6.2595 15.6136 5.83009 12.6152H6.97518C7.54773 12.6152 7.71346 12.1858 7.37446 11.7188L5.56642 9.17243C5.29522 8.79576 4.87334 8.78823 4.60214 9.17243L2.7941 11.7112C2.44756 12.1858 2.60576 12.6152 3.19338 12.6152Z">
    </path>
  </symbol>
  <symbol xmlns="http://www.w3.org/2000/svg" viewBox="0 0 24 24" id="workers">
    <path
      d="M24 13.818a6.455 6.455 0 0 0-3.261-.873c-1.168 0-2.366.317-3.315.905.414.27.73.587.98.956.647-.361 1.499-.572 2.335-.572 1.274 0 2.446.467 3.261 1.166v-1.582ZM24 17.797h-4.338c.052.497-.219 1.047-.633 1.288H24v-1.288ZM4.971 19.085H0v-1.288h4.33c-.052.497.227 1.047.641 1.288ZM3.254 14.234c-1.273 0-2.44.466-3.254 1.163v-1.582a6.442 6.442 0 0 1 3.254-.87c1.175 0 2.365.317 3.322.905-.414.27-.73.587-.987.956-.648-.361-1.492-.572-2.335-.572Z">
    </path>
    <path fill-rule="evenodd" clip-rule="evenodd"
      d="M12 11.989c1.823 0 3.3-1.605 3.3-3.579 0-1.943-1.47-3.495-3.3-3.495-1.808 0-3.3 1.574-3.3 3.51.008 1.967 1.477 3.564 3.3 3.564Zm0-1.319c-1.04 0-1.921-.979-1.921-2.252 0-1.228.874-2.185 1.921-2.185 1.055 0 1.921.942 1.921 2.177 0 1.266-.874 2.26-1.921 2.26ZM3.261 12.162c1.59 0 2.87-1.409 2.87-3.149 0-1.695-1.28-3.066-2.87-3.066C1.687 5.947.383 7.34.391 9.02c0 1.74 1.288 3.141 2.87 3.141Zm0-1.303c-.851 0-1.574-.814-1.574-1.838 0-.98.715-1.778 1.574-1.778.874 0 1.582.783 1.582 1.77 0 1.032-.723 1.846-1.582 1.846ZM20.739 12.162c1.574 0 2.863-1.401 2.87-3.141.008-1.68-1.296-3.074-2.87-3.074-1.59 0-2.878 1.37-2.878 3.066 0 1.74 1.288 3.149 2.878 3.149Zm0-1.303c-.867 0-1.582-.814-1.582-1.846 0-.987.708-1.77 1.582-1.77.851 0 1.574.798 1.574 1.778 0 1.024-.723 1.838-1.574 1.838ZM16.693 19.085c1.304 0 1.929-.414 1.929-1.303 0-2.072-2.584-4.829-6.622-4.829s-6.63 2.757-6.63 4.829c0 .889.633 1.303 1.937 1.303h9.386Zm-9.627-1.318c-.174 0-.242-.06-.242-.196 0-1.153 1.861-3.3 5.176-3.3 3.315 0 5.175 2.147 5.175 3.3 0 .136-.067.196-.248.196H7.066Z">
    </path>
  </symbol>
  <symbol xmlns="http://www.w3.org/2000/svg" viewBox="0 0 24 24" id="complain">
    <path
      d="M8.41399 20.1111C8.8434 20.1111 9.15981 19.9001 9.67962 19.4406L12.2636 17.1655H16.7988C19.0663 17.1655 20.3395 15.8546 20.3395 13.6172V7.76368C20.3395 5.52623 19.0663 4.21541 16.7988 4.21541H7.19357C4.93352 4.21541 3.65283 5.52623 3.65283 7.76368V13.6172C3.65283 15.8622 4.97119 17.1655 7.14083 17.1655H7.44971V19.0112C7.44971 19.6816 7.80378 20.1111 8.41399 20.1111ZM8.79067 18.4236V16.2765C8.79067 15.832 8.5948 15.6588 8.17292 15.6588H7.2463C5.83001 15.6588 5.15199 14.9431 5.15199 13.572V7.80888C5.15199 6.43779 5.83001 5.7221 7.2463 5.7221H16.7536C18.1623 5.7221 18.8403 6.43779 18.8403 7.80888V13.572C18.8403 14.9431 18.1623 15.6588 16.7536 15.6588H12.1807C11.7212 15.6588 11.4952 15.7341 11.1788 16.0656L8.79067 18.4236ZM11.9999 11.9372C12.4143 11.9372 12.6478 11.7037 12.6629 11.2667L12.7759 7.64314C12.7909 7.19867 12.4595 6.87473 11.9924 6.87473C11.5253 6.87473 11.2014 7.19113 11.2164 7.63561L11.3219 11.2667C11.337 11.6962 11.5781 11.9372 11.9999 11.9372ZM11.9999 14.4383C12.4896 14.4383 12.8889 14.0843 12.8889 13.6021C12.8889 13.1275 12.4896 12.7734 11.9999 12.7734C11.5103 12.7734 11.111 13.1275 11.111 13.6021C11.111 14.0767 11.5178 14.4383 11.9999 14.4383Z">
    </path>
  </symbol>
  <symbol xmlns="http://www.w3.org/2000/svg" viewBox="0 0 24 24" id="share">
    <path
      d="M13.0019 18.7174C13.4163 18.7174 13.7402 18.5592 14.1395 18.1825L20.106 12.5851C20.3998 12.3064 20.5128 11.9824 20.5128 11.7037C20.5128 11.4174 20.3998 11.101 20.106 10.8223L14.1395 5.26256C13.7025 4.85575 13.4163 4.69002 13.017 4.69002C12.4143 4.69002 11.9849 5.15709 11.9849 5.74471V8.42662H11.7966C6.59846 8.42662 4.18774 11.764 4.18774 17.2333C4.18774 18.19 4.59455 18.6872 5.1219 18.6872C5.52117 18.6872 5.89031 18.5592 6.18412 18.0092C7.36687 15.8094 9.04684 15.0034 11.7966 15.0034H11.9849V17.7003C11.9849 18.288 12.4143 18.7174 13.0019 18.7174ZM13.4841 16.7737C13.4163 16.7737 13.3711 16.7285 13.3711 16.6532V13.8733C13.3711 13.7001 13.2957 13.6247 13.1225 13.6247H12.1582C8.70783 13.6247 6.50806 14.7171 5.60404 16.6005C5.58144 16.6457 5.55884 16.6683 5.5287 16.6683C5.49857 16.6683 5.47597 16.6457 5.47597 16.5929C5.59651 12.9994 7.30661 9.79772 12.1582 9.79772H13.1225C13.2957 9.79772 13.3711 9.72238 13.3711 9.54911V6.70146C13.3711 6.63366 13.4163 6.58846 13.4841 6.58846C13.5293 6.58846 13.5745 6.61106 13.6121 6.64872L18.7575 11.5606C18.8102 11.6208 18.8328 11.6585 18.8328 11.7037C18.8328 11.7489 18.8178 11.7866 18.7575 11.8468L13.6046 16.7135C13.5669 16.7511 13.5217 16.7737 13.4841 16.7737Z">
    </path>
  </symbol>
  <symbol xmlns="http://www.w3.org/2000/svg" viewBox="0 0 24 24" id="play">
    <path
      d="M7.99219 18.3181C8.30859 18.3181 8.58733 18.2051 8.93387 18.0017L17.8309 12.8563C18.4788 12.4796 18.75 12.1858 18.75 11.7112C18.75 11.2366 18.4788 10.9503 17.8309 10.5661L8.93387 5.42076C8.58733 5.21736 8.30859 5.10435 7.99219 5.10435C7.37444 5.10435 6.9375 5.57896 6.9375 6.32478V17.0977C6.9375 17.851 7.37444 18.3181 7.99219 18.3181ZM8.54967 16.4498C8.512 16.4498 8.48186 16.4121 8.48186 16.3594V7.06306C8.48186 7.00279 8.512 6.97266 8.54967 6.97266C8.5798 6.97266 8.60993 6.98773 8.64007 7.01033L16.6406 11.6284C16.6708 11.651 16.7009 11.6736 16.7009 11.7112C16.7009 11.7489 16.6708 11.7715 16.6406 11.7941L8.64007 16.4121C8.60993 16.4347 8.5798 16.4498 8.54967 16.4498Z">
    </path>
  </symbol>
  <symbol xmlns="http://www.w3.org/2000/svg" viewBox="0 0 24 24" id="pause">
    <path
      d="M9.36328 18.0619C9.83789 18.0619 10.207 17.7079 10.207 17.2408V6.18164C10.207 5.71456 9.83789 5.36049 9.36328 5.36049C8.88867 5.36049 8.51953 5.71456 8.51953 6.18164V17.2408C8.51953 17.7079 8.88867 18.0619 9.36328 18.0619ZM14.6292 18.0619C15.1038 18.0619 15.4729 17.7079 15.4729 17.2408V6.18164C15.4729 5.71456 15.1038 5.36049 14.6292 5.36049C14.1546 5.36049 13.7854 5.71456 13.7854 6.18164V17.2408C13.7854 17.7079 14.1546 18.0619 14.6292 18.0619Z">
    </path>
  </symbol>
  <symbol xmlns="http://www.w3.org/2000/svg" viewBox="0 0 24 24" id="unmute">
    <path
      d="M4.91849 14.928H7.05047C7.11074 14.928 7.171 14.9431 7.2162 14.9883L10.5234 17.9414C10.9151 18.2955 11.2165 18.4612 11.6158 18.4612C12.1732 18.4612 12.5951 18.0393 12.5951 17.4819V5.97823C12.5951 5.41322 12.1732 4.96121 11.6007 4.96121C11.2165 4.96121 10.9453 5.13448 10.5234 5.51869L7.2162 8.44921C7.171 8.49442 7.11074 8.50948 7.05047 8.50948H4.91849C3.80354 8.50948 3.23853 9.09709 3.23853 10.2723V13.1652C3.23853 14.3479 3.81107 14.928 4.91849 14.928ZM18.1925 17.0826C18.539 17.2935 18.9609 17.2182 19.202 16.8641C20.1813 15.478 20.7539 13.6172 20.7539 11.7037C20.7539 9.79017 20.1889 7.92187 19.202 6.54324C18.9609 6.18917 18.539 6.1063 18.1925 6.32477C17.8309 6.55078 17.7781 7.00279 18.0494 7.40206C18.8479 8.57728 19.3074 10.1066 19.3074 11.7037C19.3074 13.2932 18.8404 14.8225 18.0494 16.0053C17.7857 16.4046 17.8309 16.849 18.1925 17.0826ZM5.05409 13.5795C4.80549 13.5795 4.68495 13.459 4.68495 13.2104V10.2346C4.68495 9.97851 4.80549 9.85798 5.05409 9.85798H7.40454C7.60795 9.85798 7.75861 9.82031 7.93188 9.66211L10.9302 6.92745C10.9679 6.89732 11.0055 6.87472 11.0507 6.87472C11.111 6.87472 11.1562 6.91238 11.1562 6.98019V16.4347C11.1562 16.51 11.111 16.5477 11.0583 16.5477C11.0131 16.5477 10.9754 16.5326 10.9302 16.495L7.93188 13.7754C7.75861 13.6172 7.60795 13.5795 7.40454 13.5795H5.05409ZM15.164 15.0636C15.488 15.2745 15.9098 15.1992 16.1434 14.8677C16.7536 14.0541 17.1152 12.9015 17.1152 11.7037C17.1152 10.5059 16.7536 9.36077 16.1434 8.53962C15.9098 8.20814 15.488 8.13281 15.164 8.35128C14.7949 8.59235 14.7196 9.03683 15.0209 9.47377C15.4352 10.0689 15.6688 10.8675 15.6688 11.7037C15.6688 12.5399 15.4277 13.3309 15.0209 13.9336C14.7271 14.3705 14.7949 14.815 15.164 15.0636Z">
    </path>
  </symbol>
  <symbol xmlns="http://www.w3.org/2000/svg" viewBox="0 0 24 24" id="mute">
    <path
      d="M15.8646 13.5418V5.97823C15.8646 5.41322 15.4428 4.96121 14.8702 4.96121C14.4785 4.96121 14.2073 5.13448 13.7854 5.51869L10.6439 8.30608L11.6082 9.2779L14.1922 6.92745C14.2299 6.89732 14.2675 6.87472 14.3203 6.87472C14.373 6.87472 14.4182 6.91238 14.4182 6.98019V12.0954L15.8646 13.5418ZM18.3733 19.1844C18.6068 19.4104 18.991 19.418 19.217 19.1844C19.4506 18.9434 19.4581 18.5667 19.217 18.3331L6.01838 5.14202C5.78484 4.90848 5.40063 4.90094 5.1671 5.14202C4.93356 5.36802 4.93356 5.75976 5.1671 5.98577L18.3733 19.1844ZM8.18049 14.928H10.32C10.3803 14.928 10.4405 14.9431 10.4857 14.9883L13.7929 17.9414C14.1847 18.2955 14.486 18.4612 14.8853 18.4612C15.2394 18.4612 15.5407 18.2804 15.7215 17.9866L14.4483 16.721L11.1637 13.7528C11.0055 13.6096 10.9001 13.5795 10.6967 13.5795H8.31609C8.06749 13.5795 7.94695 13.459 7.94695 13.2104V10.212L6.832 9.10463C6.62106 9.3683 6.50052 9.76004 6.50052 10.2723V13.1652C6.50052 14.3479 7.07307 14.928 8.18049 14.928Z">
    </path>
  </symbol>
  <symbol xmlns="http://www.w3.org/2000/svg" viewBox="0 0 24 24" id="trash">
    <path
      d="M8.54234 19.5159H15.4656C16.6258 19.5159 17.3716 18.8153 17.4319 17.6552L17.9366 6.80695H18.7653C19.1495 6.80695 19.4433 6.50562 19.4433 6.12894C19.4433 5.75227 19.142 5.46599 18.7653 5.46599H15.4204V4.33597C15.4204 3.17582 14.6821 2.4978 13.424 2.4978H10.5613C9.30322 2.4978 8.56494 3.17582 8.56494 4.33597V5.46599H5.23514C4.85847 5.46599 4.55713 5.7598 4.55713 6.12894C4.55713 6.51315 4.85847 6.80695 5.23514 6.80695H6.06383L6.56857 17.6552C6.62884 18.8229 7.36712 19.5159 8.54234 19.5159ZM9.9737 4.40377C9.9737 4.01957 10.2449 3.77096 10.6592 3.77096H13.3261C13.7404 3.77096 14.0116 4.01957 14.0116 4.40377V5.46599H9.9737V4.40377ZM8.69301 18.1674C8.27867 18.1674 7.97733 17.8586 7.95473 17.4141L7.44999 6.80695H16.5278L16.0382 17.4141C16.0231 17.8661 15.7293 18.1674 15.2999 18.1674H8.69301ZM9.77783 16.9546C10.1018 16.9546 10.3052 16.7512 10.2976 16.4498L10.0716 8.56979C10.0641 8.26845 9.85317 8.07258 9.54429 8.07258C9.22789 8.07258 9.02448 8.27598 9.03202 8.57732L9.25802 16.4573C9.26556 16.7587 9.47649 16.9546 9.77783 16.9546ZM12.0002 16.9546C12.3166 16.9546 12.5351 16.7587 12.5351 16.4573V8.57732C12.5351 8.27598 12.3166 8.07258 12.0002 8.07258C11.6838 8.07258 11.4729 8.27598 11.4729 8.57732V16.4573C11.4729 16.7587 11.6838 16.9546 12.0002 16.9546ZM14.2226 16.9621C14.5239 16.9621 14.7349 16.7587 14.7424 16.4573L14.9684 8.57732C14.9759 8.27598 14.7725 8.08011 14.4561 8.08011C14.1473 8.08011 13.9363 8.27598 13.9288 8.57732L13.7028 16.4573C13.6952 16.7512 13.8986 16.9621 14.2226 16.9621Z">
    </path>
  </symbol>

  <symbol xmlns="http://www.w3.org/2000/svg" viewBox="0 0 24 24" id="download">
    <path
      d="M17.8458 18.8755C17.8458 18.4084 17.5068 18.0543 17.0397 18.0543H12.0751C12.2785 18.0317 12.4744 17.9413 12.6251 17.7831L17.5821 12.8186C17.7629 12.6378 17.8458 12.4344 17.8458 12.2084C17.8458 11.7413 17.4992 11.3947 17.0397 11.3947C16.8062 11.3947 16.5952 11.4927 16.4445 11.6433L14.7269 13.3384L12.7757 15.5231L12.836 13.8959V4.59201C12.836 4.08726 12.497 3.74072 11.9998 3.74072C11.5026 3.74072 11.1636 4.08726 11.1636 4.59201V13.8959L11.2238 15.5156L9.27267 13.3384L7.55504 11.6433C7.40437 11.4927 7.19343 11.3947 6.95236 11.3947C6.49282 11.3947 6.15381 11.7413 6.15381 12.2084C6.15381 12.4344 6.23668 12.6378 6.41748 12.8186L11.3745 17.7831C11.5252 17.9413 11.7211 18.0317 11.9245 18.0543H6.97496C6.50035 18.0543 6.15381 18.4084 6.15381 18.8755C6.15381 19.3426 6.50035 19.6966 6.97496 19.6966H17.0397C17.5068 19.6966 17.8458 19.3426 17.8458 18.8755Z">
    </path>
  </symbol>
</svg>
