<svg width="0" height="0" class="hidden">
  <symbol xmlns="http://www.w3.org/2000/svg" viewBox="0 0 24 24" id="nav-aichat">
    <path
      d="M6.807 20.08c.429 0 .806-.18 1.325-.632l2.419-2.154c.557.58 1.393.889 2.44.889h2.577l2.509 2.154c.497.422.85.655 1.258.655.602 0 .956-.429.956-1.084v-1.726h.347c1.898 0 3.164-1.16 3.164-3.11v-4.604c0-1.981-1.288-3.171-3.224-3.171h-1.311v-.49c0-2.05-1.258-3.262-3.322-3.262h-11c-2.003 0-3.321 1.213-3.321 3.262v7.051c0 2.02 1.295 3.217 3.262 3.217h.949v1.929c0 .663.361 1.077.972 1.077Zm.376-3.743c0-.452-.278-.686-.655-.686H5.127c-1.25 0-2.004-.7-2.004-2.004V6.973c0-1.304.76-2.012 2.004-2.012h10.63c1.25 0 2.003.708 2.003 2.012v.324h-4.768c-2.004 0-3.225 1.19-3.225 3.171v4.603c0 .317.03.603.09.874l-2.674 2.501v-2.11Zm11.768 3.02-2.358-2.139c-.332-.301-.61-.437-1.055-.437H13.15c-1.183 0-1.899-.655-1.899-1.906v-4.264c0-1.235.716-1.906 1.899-1.906h7.262c1.19 0 1.906.67 1.906 1.906v4.264c0 1.243-.723 1.906-1.906 1.906h-.814c-.369 0-.647.226-.647.678v1.899Z">
    </path>
  </symbol>
  <!-- <symbol xmlns="http://www.w3.org/2000/svg" viewBox="0 0 24 24" id="back-to-home">
    <path
      d="M3.49951 11.3271C3.49951 11.7189 3.80085 12.0579 4.28299 12.0579C4.51653 12.0579 4.72747 11.9298 4.91581 11.7791L5.77462 11.0559V18.062C5.77462 19.177 6.4451 19.8399 7.59773 19.8399H17.7905C18.9356 19.8399 19.6136 19.177 19.6136 18.062V11.0182L20.5176 11.7791C20.6985 11.9298 20.9094 12.0579 21.1429 12.0579C21.5874 12.0579 21.9264 11.7791 21.9264 11.3422C21.9264 11.086 21.8285 10.8826 21.6326 10.7169L19.6136 9.01433V5.80507C19.6136 5.46606 19.3952 5.25513 19.0562 5.25513H18.0165C17.6851 5.25513 17.4591 5.46606 17.4591 5.80507V7.2063L13.7902 4.1251C13.1348 3.57516 12.3062 3.57516 11.6507 4.1251L3.80085 10.7169C3.59745 10.8826 3.49951 11.1086 3.49951 11.3271ZM14.8826 13.4064C14.8826 13.0523 14.6566 12.8263 14.3025 12.8263H11.1385C10.7844 12.8263 10.5509 13.0523 10.5509 13.4064V18.3408H7.997C7.52992 18.3408 7.27379 18.0771 7.27379 17.6025V9.79782L12.389 5.50373C12.6 5.32293 12.841 5.32293 13.052 5.50373L18.1069 9.75262V17.6025C18.1069 18.0771 17.8508 18.3408 17.3837 18.3408H14.8826V13.4064Z">
    </path>
  </symbol> -->
  <symbol xmlns="http://www.w3.org/2000/svg" viewBox="0 0 24 24" id="nav-worklog">
    <path
      d="M17.545 19.486c.941-.46 1.19-.882 1.19-1.869V6.1c0-1.288-.595-1.899-1.83-1.899h-.716v-.203c0-.799-.407-1.228-1.13-1.228-.241 0-.528.06-.86.173-2.274.731-4.354 1.22-7.005 1.22H6.62c-.866 0-1.356.498-1.356 1.289v12.927c0 .633.15 1.017.738 1.304 1.296.58 3.225.949 5.229.956 2.184-.007 4.618-.339 6.313-1.152ZM6.68 17.7V5.888c0-.204.106-.324.302-.324h.361c2.547 0 4.972-.527 7.044-1.168.241-.083.392-.015.392.211v11.09c0 .369-.053.527-.407.76-1.507 1.055-4.113 1.68-7.428 1.514-.188-.007-.264-.09-.264-.27Zm8.777-.286c.572-.437.73-.753.73-1.454V5.617h.679c.309 0 .452.158.452.504v11.346c0 .444-.076.633-.505.813-1.462.64-3.616 1.048-5.582 1.055-.739 0-1.454-.023-2.178-.09 2.667-.143 5.153-.89 6.404-1.83ZM8.135 7.5v2.486c0 .113.09.173.181.173 1.74 0 3.526-.309 4.882-.851a.18.18 0 0 0 .105-.166V6.566c0-.173-.158-.211-.24-.181-1.56.58-3.074.851-4.747.92a.192.192 0 0 0-.18.195Z">
    </path>
  </symbol>
  <!-- <symbol xmlns="http://www.w3.org/2000/svg" viewBox="0 0 24 24" id="manage-plans">
    <path fill-rule="evenodd" clip-rule="evenodd"
      d="M9.61518 2.76094H18.2103C19.4648 2.76094 20.4818 3.77789 20.4818 5.03237V18.9668C20.4818 20.2212 19.4648 21.2382 18.2103 21.2382H9.61518C8.36071 21.2382 7.34375 20.2212 7.34375 18.9668V5.03237C7.34375 3.7779 8.3607 2.76094 9.61518 2.76094ZM9.61518 4.17523C9.14179 4.17523 8.75804 4.55898 8.75804 5.03237V18.9668C8.75804 19.4402 9.14179 19.8239 9.61518 19.8239H18.2103C18.6837 19.8239 19.0675 19.4402 19.0675 18.9668V5.03237C19.0675 4.55898 18.6837 4.17523 18.2103 4.17523H9.61518Z">
    </path>
    <path fill-rule="evenodd" clip-rule="evenodd"
      d="M4.32747 6.84861C4.24463 6.84861 4.17747 6.91577 4.17747 6.99861V17.7784C4.17747 17.8613 4.24463 17.9284 4.32747 17.9284H6.39164V19.3427H4.32747C3.46354 19.3427 2.76318 18.6423 2.76318 17.7784V6.99861C2.76318 6.13468 3.46354 5.43433 4.32747 5.43433H6.39164V6.84861H4.32747Z">
    </path>
    <circle cx="14.0002" cy="8.35327" r="2.2002"></circle>
    <path fill-rule="evenodd" clip-rule="evenodd"
      d="M10.198 16.8852C10.198 16.6485 10.3899 16.4566 10.6266 16.4566H15.1458C15.3825 16.4566 15.5744 16.6485 15.5744 16.8852C15.5744 17.1219 15.3825 17.3138 15.1458 17.3138H10.6266C10.3899 17.3138 10.198 17.1219 10.198 16.8852Z">
    </path>
    <path fill-rule="evenodd" clip-rule="evenodd"
      d="M10.198 14.5788C10.198 14.3421 10.3899 14.1502 10.6266 14.1502H17.1991C17.4358 14.1502 17.6277 14.3421 17.6277 14.5788C17.6277 14.8155 17.4358 15.0074 17.1991 15.0074H10.6266C10.3899 15.0074 10.198 14.8155 10.198 14.5788Z">
    </path>
  </symbol> -->
  <symbol xmlns="http://www.w3.org/2000/svg" viewBox="0 0 24 24" id="nav-salaries">
    <path
      d="M3.80347 7.35687C3.80347 7.87668 4.15754 8.21569 4.68488 8.21569H6.47032V17.3312C6.47032 18.9735 7.29147 19.8022 8.93377 19.8022H17.7103C19.2019 19.8022 20.1963 18.7776 20.1963 17.2333V15.0938C20.1963 14.5815 19.8422 14.2349 19.3224 14.2349H18.6972V6.08371C18.6972 4.45648 17.8534 3.60519 16.2412 3.60519H5.89024C4.65475 3.60519 3.80347 4.46401 3.80347 5.77484V7.35687ZM5.23483 6.78432V5.77484C5.23483 5.31529 5.50603 5.03656 5.89024 5.03656C6.28198 5.03656 6.53812 5.31529 6.53812 5.77484V6.78432H5.23483ZM7.96948 17.2634V5.87277C7.96948 5.59403 7.94688 5.3379 7.90168 5.10436H16.1056C16.8364 5.10436 17.198 5.48856 17.198 6.18165V14.2349H10.9075C10.3802 14.2349 10.0261 14.5815 10.0261 15.0938V17.2634C10.0261 17.8887 9.60425 18.303 9.00157 18.303C8.39889 18.303 7.96948 17.8661 7.96948 17.2634ZM10.0563 8.23075H15.1188C15.39 8.23075 15.6009 8.01981 15.6009 7.74861C15.6009 7.48494 15.39 7.28153 15.1188 7.28153H10.0563C9.76998 7.28153 9.56658 7.48494 9.56658 7.74861C9.56658 8.01981 9.76998 8.23075 10.0563 8.23075ZM10.0563 10.7997H12.7156C12.9943 10.7997 13.1977 10.5963 13.1977 10.3326C13.1977 10.0614 12.9943 9.85045 12.7156 9.85045H10.0563C9.76998 9.85045 9.56658 10.0614 9.56658 10.3326C9.56658 10.5963 9.76998 10.7997 10.0563 10.7997ZM11.2767 18.303C11.4424 17.9866 11.5328 17.6175 11.5328 17.1805V15.7416H18.6972V17.1579C18.6972 17.851 18.2678 18.303 17.6425 18.303H11.2767Z">
    </path>
  </symbol>

  <symbol xmlns="http://www.w3.org/2000/svg" viewBox="0 0 24 24" id="nav-materials">
    <path
      d="M17.6679 4.33004H7.77785C7.82785 3.65004 8.22785 3.29004 8.95785 3.29004H16.4879C17.2179 3.29004 17.6179 3.65004 17.6679 4.33004Z">
    </path>
    <path
      d="M19.1479 6.52004H6.28785C6.38785 5.80004 6.74785 5.39004 7.55785 5.39004H17.8679C18.6779 5.39004 19.0379 5.80004 19.1479 6.52004Z">
    </path>
    <path
      d="M8.40785 13.8213H17.3479C17.7579 13.8213 18.0979 13.4813 18.0979 13.0713C18.0979 12.6613 17.7579 12.3213 17.3479 12.3213H8.40785C7.99785 12.3213 7.65785 12.6613 7.65785 13.0713C7.65785 13.4813 7.99785 13.8213 8.40785 13.8213Z">
    </path>
    <path
      d="M8.40785 16.2913H13.2279C13.6379 16.2913 13.9779 15.9513 13.9779 15.5413C13.9779 15.1313 13.6379 14.7913 13.2279 14.7913H8.40785C7.99785 14.7913 7.65785 15.1313 7.65785 15.5413C7.65785 15.9513 7.99785 16.2913 8.40785 16.2913Z">
    </path>
    <path fill-rule="evenodd" clip-rule="evenodd"
      d="M18.3879 20.71H7.02785C5.38785 20.71 4.54785 19.86 4.54785 18.25V10.22C4.54785 8.60004 5.39785 7.76004 7.02785 7.76004H18.3879C20.0179 7.76004 20.8779 8.61004 20.8779 10.22V18.25C20.8779 19.87 20.0179 20.71 18.3879 20.71ZM6.04785 18.12C6.04785 18.85 6.43785 19.2 7.12785 19.2H18.2879C18.9879 19.2 19.3679 18.85 19.3679 18.12V10.36C19.3679 9.63004 18.9779 9.27004 18.2879 9.27004H7.12785C6.42785 9.27004 6.04785 9.63004 6.04785 10.36V18.12Z">
    </path>
  </symbol>

  <symbol xmlns="http://www.w3.org/2000/svg" viewBox="0 0 24 24" id="nav-equipment">
    <path
      d="M4.976 19.772c1.341 1.326 3.157 1.319 4.445.015 1.16-1.168 1.492-2.599 3.383-5.092l3.028 3.013.098.663c.045.294.233.557.474.723l2.389 1.605c.27.18.542.18.738-.015l1.439-1.44c.188-.195.173-.474 0-.738l-1.59-2.38a1.089 1.089 0 0 0-.73-.475l-.656-.098-3.202-3.201c.28-.294.573-.603.897-.927 1.62.716 3.548.444 4.829-.844 1.409-1.4 1.627-3.63.527-5.394l-.859.86v.007L18.973 7.25c-.188.196-.421.204-.617 0l-.844-.843c-.211-.211-.218-.445-.03-.633l1.205-1.205.866-.86c-1.755-1.1-3.977-.888-5.386.52-1.107 1.116-1.469 2.698-1.085 4.152L8.954 4.238c-1.115-1.115-2.313-1.122-3.405-.03l-1.062 1.07c-1.093 1.085-1.085 2.282.03 3.397l4.21 4.211c-1.717 1.116-2.817 1.5-3.766 2.434-1.303 1.296-1.31 3.104.015 4.452ZM16.6 7.063l1.093 1.085c.565.565 1.288.58 1.823.045l1.017-1.024c.128.949-.166 1.898-.851 2.584-1.228 1.228-3.262 1.167-4.566-.12-1.296-1.297-1.348-3.346-.113-4.566.678-.678 1.628-.972 2.57-.852l-1.018 1.01c-.557.557-.535 1.273.045 1.838ZM5.323 7.75c-.528-.528-.52-1.055-.008-1.575l1.13-1.145c.52-.52 1.055-.512 1.582.015l4.649 4.648a29.69 29.69 0 0 1-2.946 2.494L5.323 7.749Zm4.595 1.424c.128.143.362.128.482.007a.348.348 0 0 0 .008-.497L7.666 5.948a.334.334 0 0 0-.475 0 .337.337 0 0 0 0 .482l2.727 2.743Zm-.957.949a.339.339 0 0 0 .49 0 .334.334 0 0 0 0-.475L6.71 6.905c-.12-.128-.347-.128-.482 0-.136.136-.143.362-.008.49l2.742 2.727Zm5.32.339c.135.128.27.256.413.361-4.95 5.093-4.437 6.366-6.154 8.091-.784.791-1.854.822-2.69-.007-.836-.851-.798-1.914-.015-2.697 1.725-1.718 2.99-1.205 8.084-6.155.112.143.233.279.361.407Zm2.922 7.57-.158-.843-3.466-3.465c.121-.15.25-.294.385-.452l3.503 3.503.844.143 1.386 1.838-.663.663-1.83-1.386Zm-10.027.453a.892.892 0 1 0-.007-1.785.892.892 0 0 0 .007 1.785Z">
    </path>
  </symbol>


  <!-- <symbol xmlns="http://www.w3.org/2000/svg" viewBox="0 0 24 24" id="generate-tables">
    <path
      d="M6.53516 21.8872H16.9088C18.5435 21.8872 19.3948 21.0435 19.3948 19.4313V7.26304C19.3948 5.65088 18.5435 4.80713 16.9088 4.80713H6.53516C4.90792 4.80713 4.05664 5.64335 4.05664 7.26304V19.4313C4.05664 21.0435 4.90792 21.8872 6.53516 21.8872ZM6.52762 20.388C5.90234 20.388 5.5558 20.0641 5.5558 19.4012V9.47035C5.5558 8.80741 5.90234 8.48347 6.52762 8.48347H16.9163C17.5416 8.48347 17.8881 8.80741 17.8881 9.47035V19.4012C17.8881 20.0641 17.5416 20.388 16.9163 20.388H6.52762Z">
    </path>
    <path
      d="M15.8021 10.9421H13.1177C12.839 10.9421 12.6356 10.7311 12.6356 10.4524C12.6356 10.1887 12.839 9.98532 13.1177 9.98532H15.8021C16.0734 9.98532 16.2768 10.1887 16.2768 10.4524C16.2768 10.7311 16.0734 10.9421 15.8021 10.9421Z">
    </path>
    <path
      d="M10.2909 10.9421H7.60645C7.32771 10.9421 7.1243 10.7311 7.1243 10.4524C7.1243 10.1887 7.32771 9.98532 7.60645 9.98532H10.2909C10.5621 9.98532 10.7655 10.1887 10.7655 10.4524C10.7655 10.7311 10.5621 10.9421 10.2909 10.9421Z">
    </path>
    <path
      d="M15.8021 13.2884H13.1177C12.839 13.2884 12.6356 13.0774 12.6356 12.7987C12.6356 12.535 12.839 12.3316 13.1177 12.3316H15.8021C16.0734 12.3316 16.2768 12.535 16.2768 12.7987C16.2768 13.0774 16.0734 13.2884 15.8021 13.2884Z">
    </path>
    <path
      d="M10.2909 13.2884H7.60645C7.32771 13.2884 7.1243 13.0774 7.1243 12.7987C7.1243 12.535 7.32771 12.3316 7.60645 12.3316H10.2909C10.5621 12.3316 10.7655 12.535 10.7655 12.7987C10.7655 13.0774 10.5621 13.2884 10.2909 13.2884Z">
    </path>
    <path
      d="M15.8021 15.6449H13.1177C12.839 15.6449 12.6356 15.4339 12.6356 15.1552C12.6356 14.8915 12.839 14.6881 13.1177 14.6881H15.8021C16.0734 14.6881 16.2768 14.8915 16.2768 15.1552C16.2768 15.4339 16.0734 15.6449 15.8021 15.6449Z">
    </path>
    <path
      d="M10.2909 15.6449H7.60645C7.32771 15.6449 7.1243 15.4339 7.1243 15.1552C7.1243 14.8915 7.32771 14.6881 7.60645 14.6881H10.2909C10.5621 14.6881 10.7655 14.8915 10.7655 15.1552C10.7655 15.4339 10.5621 15.6449 10.2909 15.6449Z">
    </path>
    <path
      d="M15.8024 18.088H13.1179C12.8392 18.088 12.6358 17.8771 12.6358 17.5983C12.6358 17.3346 12.8392 17.1312 13.1179 17.1312H15.8024C16.0736 17.1312 16.277 17.3346 16.277 17.5983C16.277 17.8771 16.0736 18.088 15.8024 18.088Z">
    </path>
    <path
      d="M10.2911 18.088H7.60665C7.32792 18.088 7.12451 17.8771 7.12451 17.5983C7.12451 17.3346 7.32792 17.1312 7.60665 17.1312H10.2911C10.5623 17.1312 10.7657 17.3346 10.7657 17.5983C10.7657 17.8771 10.5623 18.088 10.2911 18.088Z">
    </path>
  </symbol> -->
  <symbol fill="none" xmlns="http://www.w3.org/2000/svg" viewBox="0 0 74 74" id="nav-ukko">
    <path
      d="M12 20.5C12 16.0817 15.5817 12.5 20 12.5C30.6667 12.5 41.3333 12.5 52 12.5C56.4183 12.5 60 16.0817 60 20.5C60 31.1667 60 41.8333 60 52.5C60 56.9183 56.4183 60.5 52 60.5C41.3333 60.5 30.6667 60.5 20 60.5C15.5817 60.5 12 56.9183 12 52.5C12 41.8333 12 31.1667 12 20.5ZM34.975 22.3925C34.2975 22.345 33.85 22.285 33.4 22.285C31.11 22.275 28.8175 22.2775 26.5275 22.2825C25.3492 22.2842 24.645 22.8875 24.415 24.0925C24.2975 24.705 24.155 25.3125 24.0375 25.925C23.12 30.745 22.0775 35.5475 21.3275 40.395C20.525 45.575 23.375 49.425 28.545 50.28C30.455 50.5975 32.4475 50.645 34.3875 50.535C40.925 50.1675 45.8075 46.1225 47.3275 39.7725C48.2075 36.095 48.845 32.3575 49.5825 28.6475C49.9046 27.0289 50.2155 25.4071 50.5383 23.7372C50.6701 23.0552 50.2046 22.3248 49.51 22.32V22.32C46.97 22.3125 44.4275 22.365 41.89 22.3075C40.8275 22.285 40.4725 22.7275 40.2875 23.7125C39.3775 28.5775 38.4075 33.4325 37.43 38.285C37.285 39.01 37.08 39.755 36.74 40.405C36.105 41.6225 34.27 42.165 32.7525 41.605C31.3925 41.1025 31.565 39.98 31.7825 38.8725C32.34 36.015 32.895 33.1575 33.45 30.3C33.9474 27.7358 34.4397 25.1715 34.977 22.395C34.9773 22.3937 34.9763 22.3925 34.975 22.3925V22.3925Z"
      fill="#455DA7"></path>
    <path
      d="M34.9686 22.2995C34.4275 25.0979 33.9318 27.6798 33.431 30.2592C32.8724 33.1355 32.3137 36.0118 31.7525 38.8882C31.5336 40.003 31.36 41.1329 32.7289 41.6387C34.2589 42.2024 36.106 41.6563 36.7427 40.4308C37.0824 39.774 37.2888 39.0266 37.4373 38.2968C38.4212 33.4123 39.3951 28.5253 40.3136 23.6282C40.4998 22.6367 40.8572 22.1888 41.9267 22.214C44.4834 22.2693 47.0401 22.219 49.5969 22.2266C49.9618 22.2266 50.3267 22.3121 50.8778 22.3851C50.4626 24.5191 50.075 26.5599 49.6699 28.5958C48.9275 32.3327 48.2858 36.0924 47.4 39.7941C45.87 46.186 40.9553 50.2576 34.3747 50.6275C32.4219 50.7383 30.4188 50.6905 28.4937 50.3709C23.2921 49.5102 20.4208 45.6349 21.2286 40.4207C21.9836 35.5413 23.0354 30.7096 23.9565 25.8553C24.0747 25.2388 24.2182 24.6273 24.3365 24.0107C24.5697 22.8012 25.2785 22.1938 26.4629 22.1888C28.768 22.1838 31.0756 22.1838 33.3807 22.1913C33.8311 22.1913 34.2841 22.2517 34.9661 22.2995H34.9686Z"
      fill="white"></path>
  </symbol>

  <symbol xmlns="http://www.w3.org/2000/svg" viewBox="0 0 24 24" id="nav-settings">
    <path
      d="M11.945 19.892h1.529c.625 0 1.115-.391 1.265-.994l.302-1.318.196-.076 1.152.716c.528.332 1.153.241 1.598-.203l1.054-1.055c.452-.452.527-1.07.196-1.59l-.716-1.152.076-.181 1.318-.309c.595-.15.987-.64.987-1.266V10.98c0-.625-.384-1.115-.987-1.265l-1.31-.317-.076-.196.716-1.145c.331-.52.256-1.137-.196-1.597l-1.055-1.054c-.437-.445-1.062-.528-1.59-.204l-1.152.708-.211-.075-.302-1.326a1.263 1.263 0 0 0-1.265-.987h-1.53c-.632 0-1.122.384-1.265.987l-.301 1.326-.211.075-1.153-.708c-.535-.324-1.153-.24-1.59.204L6.363 6.46c-.444.46-.527 1.078-.196 1.597l.716 1.145-.075.196-1.304.317c-.602.15-.986.64-.986 1.265v1.484c0 .626.391 1.115.986 1.266l1.319.309.068.18-.716 1.153c-.332.52-.249 1.138.196 1.59l1.062 1.055c.437.444 1.062.535 1.59.203l1.152-.716.204.076.301 1.318c.143.603.633.994 1.266.994Zm.195-1.386c-.128 0-.195-.052-.21-.165l-.453-1.854a4.4 4.4 0 0 1-1.303-.542l-1.627 1.002c-.098.06-.188.053-.279-.038l-.79-.79c-.091-.084-.091-.174-.03-.272l1.001-1.627a4.851 4.851 0 0 1-.52-1.289l-1.86-.444c-.114-.015-.174-.083-.174-.21V11.16c0-.135.053-.188.174-.218l1.853-.437c.113-.505.331-.972.52-1.311L7.44 7.583c-.06-.106-.06-.196.022-.287l.799-.783c.09-.083.173-.098.286-.03l1.612.987c.34-.211.844-.422 1.326-.543l.445-1.853c.015-.113.082-.173.21-.173h1.138c.128 0 .188.053.211.173l.452 1.86c.49.121.934.325 1.31.536l1.613-.987c.113-.06.196-.053.286.038l.799.783c.09.083.09.173.022.279l-.994 1.612c.18.339.407.806.52 1.31l1.853.438c.12.03.166.083.166.218v1.115c0 .128-.053.196-.166.211l-1.86.444a4.756 4.756 0 0 1-.528 1.289l1.002 1.62c.06.105.06.188-.03.27l-.791.8c-.09.09-.181.097-.279.037l-1.62-1.002a4.43 4.43 0 0 1-1.303.542l-.452 1.854c-.023.113-.083.165-.211.165H12.14Zm.573-3.94a2.87 2.87 0 0 0 2.855-2.862 2.866 2.866 0 0 0-2.855-2.848c-1.574 0-2.87 1.288-2.87 2.848a2.878 2.878 0 0 0 2.87 2.862Zm0-1.303c-.859 0-1.56-.7-1.56-1.56 0-.843.709-1.544 1.56-1.544.836 0 1.537.7 1.537 1.545 0 .85-.7 1.559-1.537 1.559Z">
    </path>
  </symbol>


  <symbol xmlns="http://www.w3.org/2000/svg" viewBox="0 0 24 24" id="nav-marketplace">
    <path
      d="M12.557 9.607c1.815 0 3.3-1.492 3.3-3.307 0-1.808-1.485-3.3-3.3-3.3-1.83 0-3.315 1.492-3.315 3.3a3.318 3.318 0 0 0 3.315 3.307Zm0-1.394A1.89 1.89 0 0 1 10.636 6.3c0-1.07.836-1.936 1.92-1.936 1.07 0 1.914.866 1.914 1.936a1.892 1.892 0 0 1-1.913 1.913ZM7.08 15.272c1.808 0 3.3-1.492 3.3-3.307 0-1.808-1.492-3.3-3.3-3.3-1.83 0-3.315 1.492-3.315 3.3a3.318 3.318 0 0 0 3.315 3.307Zm10.969 0c1.808 0 3.3-1.492 3.3-3.307 0-1.808-1.492-3.3-3.3-3.3-1.831 0-3.315 1.492-3.315 3.3a3.318 3.318 0 0 0 3.315 3.307ZM7.072 13.878a1.894 1.894 0 0 1-1.92-1.913c0-1.07.843-1.936 1.92-1.936 1.078 0 1.921.866 1.921 1.936a1.894 1.894 0 0 1-1.92 1.913Zm10.97 0a1.894 1.894 0 0 1-1.922-1.913c0-1.07.844-1.936 1.921-1.936s1.921.866 1.921 1.936a1.894 1.894 0 0 1-1.92 1.913Zm-5.485 7.06c1.815 0 3.3-1.5 3.3-3.308 0-1.808-1.485-3.3-3.3-3.3-1.83 0-3.315 1.492-3.315 3.3a3.323 3.323 0 0 0 3.315 3.307Zm0-1.394a1.89 1.89 0 0 1-1.921-1.914c0-1.07.836-1.936 1.92-1.936 1.07 0 1.914.866 1.914 1.936a1.892 1.892 0 0 1-1.913 1.914Z">
    </path>
  </symbol>

  <symbol xmlns="http://www.w3.org/2000/svg" viewBox="0 0 24 24" id="sorting">
    <path
      d="M7.74812 4.79541L3.95124 8.68269C3.80057 8.83336 3.70264 9.06689 3.70264 9.2703C3.70264 9.74491 4.03411 10.0688 4.50119 10.0688C4.72719 10.0688 4.90799 9.99351 5.05866 9.83531L6.61056 8.22314L7.60498 7.07806L7.54471 8.67515V18.0694C7.54471 18.544 7.88372 18.883 8.3508 18.883C8.81787 18.883 9.14934 18.544 9.14934 18.0694V8.67515L9.09661 7.07806L10.0835 8.22314L11.6354 9.83531C11.7861 9.99351 11.9744 10.0688 12.2004 10.0688C12.6599 10.0688 12.9914 9.74491 12.9914 9.2703C12.9914 9.06689 12.8935 8.83336 12.7428 8.68269L8.94594 4.79541C8.61447 4.44887 8.08712 4.44134 7.74812 4.79541ZM17.6772 18.6194L21.4741 14.7321C21.6248 14.5739 21.7227 14.3403 21.7227 14.1369C21.7227 13.6699 21.3913 13.3459 20.9242 13.3459C20.6982 13.3459 20.5174 13.4212 20.3667 13.5719L18.8148 15.1841L17.8204 16.3292L17.8807 14.7321V5.33782C17.8807 4.87828 17.5416 4.53174 17.0746 4.53174C16.615 4.53174 16.276 4.87828 16.276 5.33782V14.7321L16.3288 16.3292L15.3419 15.1841L13.79 13.5719C13.6393 13.4212 13.451 13.3459 13.2325 13.3459C12.7654 13.3459 12.4339 13.6699 12.4339 14.1369C12.4339 14.3403 12.5319 14.5739 12.6825 14.7321L16.4794 18.6194C16.8109 18.9734 17.3382 18.981 17.6772 18.6194Z">
    </path>
  </symbol>




  <!-- <symbol xmlns="http://www.w3.org/2000/svg" viewBox="0 0 24 24" id="nav-signout">
    <path fill-rule="evenodd" clip-rule="evenodd"
      d="M7.151 10.136c.39 0 .707.316.707.707v2.314a.707.707 0 1 1-1.414 0v-2.314c0-.39.316-.707.707-.707Z"></path>
    <path fill-rule="evenodd" clip-rule="evenodd"
      d="M2.798 5.149c0-.365.231-.69.576-.81l5.765-2.008a.857.857 0 0 1 1.14.81v.145h4.267c.864 0 1.564.7 1.564 1.564v3.483a.707.707 0 1 1-1.414 0V4.85a.15.15 0 0 0-.15-.15h-4.268v14.508h4.268a.15.15 0 0 0 .15-.15v-3.34a.707.707 0 0 1 1.414 0v3.34c0 .864-.7 1.564-1.564 1.564h-4.268v.237c0 .578-.56.99-1.111.819L3.4 19.887a.857.857 0 0 1-.603-.819V5.148Zm1.415 13.509V5.545l4.651-1.62v16.178l-4.651-1.445Z">
    </path>
    <path fill-rule="evenodd" clip-rule="evenodd"
      d="M18.407 9.015a.664.664 0 0 1 .938-.05l2.829 2.54a.664.664 0 0 1 0 .99l-2.83 2.54a.664.664 0 1 1-.887-.989l1.54-1.382h-6.453a.664.664 0 1 1 0-1.328h6.452l-1.539-1.382a.664.664 0 0 1-.05-.939Z">
    </path>
  </symbol> -->
</svg>
